<svg id="svg" version="1.1" xmlns="http://www.w3.org/2000/svg" xmlns:xlink="http://www.w3.org/1999/xlink" width="400" height="400" viewBox="0, 0, 400,400"><g id="svgg"><path id="path0" d="M194.441 59.000 C 177.641 60.760,162.218 68.054,152.148 79.001 C 145.179 86.577,138.961 99.500,138.946 106.438 C 138.943 107.813,138.828 108.456,138.667 108.001 C 137.714 105.305,136.972 189.398,137.880 197.248 C 140.468 219.624,153.177 236.599,173.546 244.887 L 177.296 246.412 189.136 246.651 C 212.260 247.118,218.486 247.948,199.414 248.022 C 194.688 248.041,190.161 248.164,189.355 248.298 L 187.891 248.540 187.891 254.979 L 187.891 261.419 189.439 260.020 C 198.529 251.808,214.013 255.230,219.164 266.590 C 227.663 285.334,204.488 302.341,188.993 288.730 L 187.695 287.589 187.806 296.878 L 187.917 306.166 195.423 306.408 C 199.552 306.541,208.423 306.692,215.137 306.743 L 227.344 306.836 227.344 276.365 L 227.344 245.894 229.785 244.973 C 247.985 238.100,260.893 222.548,264.931 202.628 L 265.820 198.242 265.820 155.273 C 265.820 106.830,265.891 108.101,262.680 98.507 C 253.970 72.478,225.136 55.784,194.441 59.000 M206.836 65.980 C 208.794 66.418,209.669 66.758,209.180 66.888 C 208.567 67.052,208.630 67.107,209.473 67.142 C 210.147 67.171,210.547 67.406,210.547 67.773 C 210.547 68.096,210.784 68.359,211.075 68.359 C 211.365 68.359,212.155 68.887,212.829 69.531 C 213.504 70.176,214.293 70.703,214.584 70.703 C 215.439 70.703,216.611 72.164,215.888 72.329 C 215.394 72.442,215.390 72.533,215.859 72.965 C 216.309 73.379,216.406 73.362,216.406 72.867 C 216.406 72.536,216.576 72.266,216.783 72.266 C 217.309 72.266,218.001 73.659,217.662 74.035 C 217.508 74.205,217.603 74.218,217.871 74.063 C 218.173 73.889,218.359 74.014,218.359 74.391 C 218.359 74.726,218.546 75.000,218.773 75.000 C 219.001 75.000,219.078 75.176,218.945 75.391 C 218.813 75.605,218.900 75.781,219.141 75.781 C 219.381 75.781,219.481 75.938,219.362 76.129 C 219.244 76.320,219.737 76.756,220.457 77.098 C 221.685 77.681,223.065 78.906,222.494 78.906 C 221.739 78.906,223.915 80.557,224.735 80.606 C 225.836 80.672,225.717 81.141,224.472 81.643 C 223.634 81.981,224.951 82.257,226.465 82.060 C 226.733 82.026,226.953 82.199,226.953 82.447 C 226.953 82.694,227.205 82.799,227.514 82.681 C 227.822 82.563,228.130 82.597,228.197 82.758 C 228.265 82.918,229.727 83.544,231.445 84.147 C 240.790 87.430,249.802 93.759,247.358 95.323 C 246.768 95.700,246.797 95.732,247.581 95.565 C 248.371 95.398,248.421 95.455,247.984 96.027 C 247.711 96.386,247.451 96.739,247.406 96.812 C 247.362 96.885,246.274 96.231,244.989 95.358 C 219.707 78.189,163.938 82.523,150.067 102.734 L 148.324 105.273 148.603 103.711 C 149.009 101.435,150.433 98.531,152.284 96.204 C 153.176 95.082,154.713 92.797,155.701 91.125 C 166.401 73.011,188.883 61.956,206.836 65.980 M216.015 91.209 C 232.705 93.634,247.211 100.579,251.720 108.306 C 254.417 112.927,253.639 113.545,249.758 109.864 C 235.549 96.388,204.149 91.466,176.672 98.409 C 163.430 101.755,152.684 107.606,149.328 113.296 C 147.257 116.808,147.230 116.825,147.484 114.453 C 148.483 105.095,161.859 96.375,181.250 92.440 C 185.497 91.579,188.109 91.217,195.508 90.466 C 198.662 90.146,212.033 90.631,216.015 91.209 M214.047 101.772 C 232.882 104.103,248.283 111.528,252.725 120.418 C 255.040 125.049,254.368 125.627,250.948 121.946 C 238.319 108.352,210.723 102.671,181.380 107.625 C 164.961 110.397,151.349 116.739,147.939 123.204 C 146.929 125.120,146.539 124.184,147.248 121.549 C 149.680 112.517,168.923 103.753,191.406 101.438 C 195.496 101.016,209.631 101.225,214.047 101.772 M205.664 111.129 C 221.120 111.880,242.072 118.503,246.400 124.005 C 246.785 124.494,247.462 125.010,247.905 125.150 C 248.785 125.430,251.172 128.192,251.172 128.931 C 251.172 129.273,251.036 129.280,250.648 128.957 C 249.727 128.193,249.569 129.008,250.455 129.951 C 252.553 132.185,249.861 130.410,246.678 127.461 C 244.559 125.498,237.044 121.727,231.322 119.756 C 202.269 109.747,154.492 115.987,147.809 130.664 L 146.920 132.617 146.901 131.055 C 146.768 119.877,173.127 109.595,198.828 110.801 C 200.225 110.866,203.301 111.014,205.664 111.129 M205.198 118.621 C 207.474 118.857,209.320 119.843,208.865 120.580 C 208.730 120.799,205.875 121.094,202.455 121.243 C 176.557 122.372,151.653 131.319,147.694 140.918 C 146.942 142.741,146.362 142.517,146.684 140.527 C 148.860 127.076,178.765 115.879,205.198 118.621 M224.023 125.359 C 236.200 127.224,246.139 131.680,250.997 137.453 L 252.031 138.682 250.989 138.286 L 249.946 137.889 250.781 139.062 C 251.936 140.684,251.439 140.527,249.416 138.632 C 245.785 135.228,236.423 131.269,228.298 129.701 C 199.729 124.188,154.658 135.448,147.643 149.851 C 146.810 151.562,146.698 151.657,146.559 150.781 C 144.850 140.023,168.077 127.991,196.289 125.021 C 198.438 124.794,200.898 124.538,201.758 124.451 C 205.608 124.061,219.153 124.613,224.023 125.359 M217.383 132.817 C 239.049 134.588,253.811 143.704,254.926 156.000 L 255.143 158.398 253.572 155.253 C 244.871 137.837,211.716 132.074,177.338 142.001 C 161.778 146.494,151.365 152.669,147.713 159.570 L 146.680 161.523 146.563 159.733 C 145.620 145.224,185.188 130.186,217.383 132.817 M138.174 136.028 C 138.087 136.730,138.014 136.250,138.012 134.961 C 138.009 133.672,138.081 133.097,138.170 133.684 C 138.259 134.271,138.261 135.326,138.174 136.028 M138.177 142.275 C 138.095 143.194,138.026 142.539,138.025 140.820 C 138.023 139.102,138.091 138.350,138.175 139.150 C 138.259 139.950,138.260 141.356,138.177 142.275 M224.849 143.897 C 243.111 147.791,255.152 157.309,255.054 167.773 L 255.040 169.336 253.728 166.782 C 247.171 154.014,225.776 145.971,202.781 147.629 C 176.807 149.502,153.063 159.070,147.802 169.785 L 146.680 172.070 146.563 169.608 C 146.009 157.947,168.415 146.464,198.828 142.822 C 203.735 142.234,220.252 142.917,224.849 143.897 M138.167 152.046 C 138.073 152.532,137.993 152.227,137.989 151.367 C 137.985 150.508,138.061 150.110,138.159 150.484 C 138.257 150.857,138.260 151.560,138.167 152.046 M217.383 153.719 C 239.410 156.607,255.063 167.635,255.070 180.273 L 255.071 182.227 253.630 179.297 C 248.961 169.809,234.832 161.627,218.825 159.143 C 193.380 155.193,154.308 166.957,147.966 180.477 C 146.836 182.887,146.296 182.758,146.437 180.111 C 147.260 164.612,187.184 149.760,217.383 153.719 M138.181 166.699 C 138.110 168.579,138.051 167.041,138.051 163.281 C 138.051 159.521,138.110 157.983,138.181 159.863 C 138.253 161.743,138.253 164.819,138.181 166.699 M213.456 164.469 C 235.490 166.558,253.005 177.991,254.507 191.264 C 254.800 193.848,254.243 195.923,253.683 194.336 C 248.581 179.864,228.805 169.733,205.664 169.737 C 180.157 169.741,153.200 180.842,148.606 193.234 C 147.743 195.563,147.698 195.619,147.250 194.911 C 146.632 193.933,146.837 190.322,147.642 188.033 C 152.473 174.286,186.921 161.952,213.456 164.469 M216.797 176.536 C 235.882 179.846,251.968 191.141,252.646 201.710 C 252.851 204.910,252.101 206.960,250.106 208.642 C 249.501 209.153,248.679 210.429,248.279 211.479 C 240.615 231.583,206.143 244.529,185.156 235.184 L 184.180 234.749 185.254 234.898 C 186.609 235.087,186.669 234.475,185.328 234.139 C 184.736 233.990,184.407 233.684,184.520 233.388 C 184.626 233.113,184.197 232.494,183.567 232.011 C 182.633 231.295,182.510 231.029,182.896 230.564 C 183.276 230.105,183.223 229.887,182.625 229.450 C 182.217 229.151,182.002 228.906,182.148 228.906 C 182.294 228.906,182.126 228.570,181.774 228.159 C 181.411 227.734,180.792 227.477,180.342 227.563 C 179.335 227.757,178.494 227.074,178.790 226.303 C 178.925 225.951,178.598 225.322,177.985 224.753 C 177.418 224.227,176.953 223.628,176.953 223.422 C 176.953 223.216,176.689 223.047,176.367 223.047 C 176.045 223.047,175.781 222.778,175.781 222.448 C 175.781 222.119,175.386 221.691,174.902 221.497 C 174.419 221.302,174.177 221.132,174.364 221.119 C 174.824 221.085,173.836 219.922,173.348 219.922 C 173.136 219.922,173.068 220.195,173.196 220.528 C 173.324 220.862,173.277 221.041,173.093 220.927 C 172.908 220.813,172.651 220.188,172.521 219.539 C 172.382 218.845,172.040 218.359,171.689 218.359 C 171.362 218.359,171.094 218.079,171.094 217.737 C 171.094 217.394,170.748 217.024,170.325 216.913 C 169.521 216.703,168.928 215.504,169.317 214.874 C 169.582 214.446,168.882 213.941,167.790 213.771 C 166.957 213.641,166.344 212.916,166.650 212.421 C 166.756 212.250,166.657 212.109,166.429 212.109 C 166.202 212.109,166.060 211.917,166.113 211.682 C 166.167 211.448,165.885 211.052,165.487 210.803 C 164.284 210.053,162.299 208.105,162.396 207.771 C 162.447 207.599,161.619 206.725,160.557 205.830 C 159.495 204.934,158.662 204.003,158.707 203.761 C 158.752 203.519,158.483 203.344,158.110 203.374 C 157.736 203.403,157.527 203.271,157.644 203.081 C 157.762 202.890,157.672 202.734,157.445 202.734 C 157.217 202.734,157.031 203.033,157.031 203.398 C 157.031 203.915,156.927 203.958,156.562 203.594 C 155.998 203.029,155.325 202.968,155.661 203.511 C 155.796 203.729,155.647 203.800,155.318 203.674 C 154.999 203.551,154.816 203.245,154.912 202.994 C 155.009 202.743,154.741 202.321,154.318 202.057 C 153.430 201.503,152.813 203.389,153.309 205.142 C 153.519 205.884,153.483 205.945,153.117 205.469 C 152.751 204.993,152.709 205.066,152.890 205.859 C 153.014 206.396,153.117 207.330,153.120 207.933 C 153.123 208.697,153.274 208.947,153.613 208.755 C 154.004 208.534,154.004 208.585,153.614 209.004 C 153.002 209.664,150.593 207.524,149.758 205.579 C 142.865 189.515,185.395 171.090,216.797 176.536 M196.987 259.143 C 179.973 264.641,183.018 290.297,200.807 291.327 C 218.776 292.367,224.915 267.727,208.612 260.001 C 205.613 258.580,200.010 258.166,196.987 259.143 M232.422 307.091 C 229.736 307.257,213.828 307.556,197.070 307.755 C 180.313 307.955,166.558 308.137,166.504 308.160 C 166.450 308.184,166.406 311.104,166.406 314.648 L 166.406 321.094 185.092 321.094 C 195.370 321.094,210.179 321.226,218.003 321.387 C 237.776 321.794,230.287 322.087,190.137 322.477 L 158.594 322.783 158.594 329.360 L 158.594 335.938 207.422 335.938 L 256.250 335.938 256.250 328.711 L 256.250 321.484 251.563 321.484 L 246.875 321.484 246.875 314.063 L 246.875 306.641 242.090 306.715 C 239.458 306.755,235.107 306.925,232.422 307.091 " stroke="none" fill="#221b23" fill-rule="evenodd"></path><path id="path1" d="M193.359 65.843 C 187.092 66.715,175.793 70.555,176.436 71.595 C 176.593 71.851,176.448 71.915,176.053 71.763 C 175.703 71.629,175.295 71.714,175.147 71.952 C 174.992 72.204,175.056 72.277,175.300 72.126 C 175.532 71.983,176.125 72.439,176.617 73.140 C 177.110 73.841,177.739 74.646,178.014 74.930 C 178.290 75.214,178.516 75.708,178.516 76.028 C 178.516 76.347,178.671 76.512,178.862 76.395 C 179.052 76.277,179.448 76.476,179.741 76.837 C 180.199 77.402,180.192 77.445,179.688 77.146 C 179.365 76.955,179.629 77.435,180.273 78.215 C 180.918 78.994,181.593 79.644,181.773 79.659 C 181.954 79.675,182.395 80.051,182.755 80.495 C 183.402 81.294,183.457 81.296,188.091 80.682 C 194.946 79.774,204.083 79.501,209.570 80.041 C 215.577 80.632,220.255 81.331,219.626 81.542 C 219.357 81.633,219.266 81.912,219.425 82.162 C 219.584 82.412,219.726 82.705,219.740 82.813 C 219.754 82.920,219.910 83.434,220.087 83.955 C 220.332 84.676,220.234 85.034,219.677 85.457 C 219.012 85.963,219.066 85.988,220.264 85.738 C 221.060 85.572,221.492 85.609,221.355 85.831 C 221.230 86.034,222.298 86.415,223.729 86.679 C 230.030 87.840,239.778 91.819,244.989 95.358 C 246.274 96.231,247.362 96.885,247.406 96.812 C 247.451 96.739,247.711 96.386,247.984 96.027 C 248.421 95.455,248.371 95.398,247.581 95.565 C 246.797 95.732,246.768 95.700,247.358 95.323 C 249.802 93.759,240.790 87.430,231.445 84.147 C 229.727 83.544,228.265 82.918,228.197 82.758 C 228.130 82.597,227.822 82.563,227.514 82.681 C 227.205 82.799,226.953 82.694,226.953 82.447 C 226.953 82.199,226.733 82.026,226.465 82.060 C 224.951 82.257,223.634 81.981,224.472 81.643 C 225.717 81.141,225.836 80.672,224.735 80.606 C 223.915 80.557,221.739 78.906,222.494 78.906 C 223.065 78.906,221.685 77.681,220.457 77.098 C 219.737 76.756,219.244 76.320,219.362 76.129 C 219.481 75.938,219.381 75.781,219.141 75.781 C 218.900 75.781,218.813 75.605,218.945 75.391 C 219.078 75.176,219.001 75.000,218.773 75.000 C 218.546 75.000,218.359 74.726,218.359 74.391 C 218.359 74.014,218.173 73.889,217.871 74.063 C 217.603 74.218,217.508 74.205,217.662 74.035 C 218.001 73.659,217.309 72.266,216.783 72.266 C 216.576 72.266,216.406 72.536,216.406 72.867 C 216.406 73.362,216.309 73.379,215.859 72.965 C 215.390 72.533,215.394 72.442,215.888 72.329 C 216.611 72.164,215.439 70.703,214.584 70.703 C 214.293 70.703,213.504 70.176,212.829 69.531 C 212.155 68.887,211.365 68.359,211.075 68.359 C 210.784 68.359,210.547 68.096,210.547 67.773 C 210.547 67.406,210.147 67.171,209.473 67.142 C 208.630 67.107,208.567 67.052,209.180 66.888 C 213.001 65.869,199.557 64.980,193.359 65.843 M222.656 92.973 C 222.119 93.143,221.883 93.299,222.131 93.320 C 222.380 93.342,222.496 93.693,222.389 94.101 C 222.283 94.508,222.405 95.234,222.661 95.713 C 223.033 96.407,223.020 96.658,222.599 96.950 C 222.238 97.200,222.365 97.233,222.998 97.054 C 223.508 96.910,224.036 96.948,224.170 97.139 C 224.304 97.331,226.114 97.961,228.192 98.540 C 236.385 100.824,244.991 105.343,249.758 109.864 C 252.658 112.614,253.846 113.036,253.097 111.049 C 250.445 104.017,241.211 97.614,228.432 93.947 C 223.744 92.602,223.801 92.611,222.656 92.973 M222.503 103.681 C 222.621 103.986,222.967 104.332,223.272 104.450 C 223.578 104.567,223.828 104.932,223.828 105.261 C 223.828 105.590,224.004 105.859,224.219 105.859 C 224.434 105.859,224.589 105.991,224.563 106.152 C 224.443 106.916,224.645 107.446,224.980 107.239 C 225.183 107.113,225.279 107.376,225.193 107.823 C 225.067 108.478,225.185 108.588,225.800 108.393 C 226.231 108.256,226.563 108.332,226.563 108.567 C 226.563 108.797,226.809 108.984,227.111 108.984 C 232.141 108.984,245.813 116.418,250.948 121.946 C 254.368 125.627,255.040 125.049,252.725 120.418 C 249.342 113.647,233.144 104.082,224.544 103.777 C 223.757 103.749,223.196 103.591,223.298 103.425 C 223.400 103.260,223.215 103.125,222.887 103.125 C 222.531 103.125,222.376 103.350,222.503 103.681 M149.979 120.215 L 148.633 121.680 150.098 120.334 C 150.903 119.593,151.563 118.934,151.563 118.869 C 151.563 118.570,151.232 118.851,149.979 120.215 M150.370 123.730 L 149.023 125.195 150.488 123.849 C 151.852 122.596,152.133 122.266,151.834 122.266 C 151.769 122.266,151.110 122.925,150.370 123.730 M246.484 125.193 C 246.484 125.491,246.281 125.861,246.033 126.014 C 245.731 126.201,245.686 126.112,245.895 125.744 C 246.149 125.299,246.108 125.288,245.680 125.685 C 245.147 126.180,246.092 127.217,249.595 129.980 C 251.046 131.125,251.542 131.108,250.455 129.951 C 249.569 129.008,249.727 128.193,250.648 128.957 C 251.653 129.792,251.211 128.519,249.952 126.952 C 248.632 125.310,246.484 124.220,246.484 125.193 M130.697 125.846 C 130.608 126.133,130.436 127.203,130.314 128.224 C 130.065 130.309,129.494 131.552,125.957 137.695 C 121.868 144.797,119.962 150.603,119.351 157.813 C 118.649 166.095,117.886 169.373,113.863 181.384 C 104.491 209.363,102.853 236.863,109.229 259.180 C 113.431 273.887,119.839 280.630,133.333 284.540 C 147.420 288.623,150.410 285.333,143.653 273.186 C 134.201 256.194,128.779 233.447,128.166 208.203 L 127.914 197.852 127.531 202.539 C 126.979 209.308,127.066 233.278,127.662 238.477 C 128.960 249.802,130.875 258.724,133.861 267.363 C 136.101 273.843,136.264 274.798,135.223 275.355 C 130.854 277.693,122.596 252.837,120.516 231.090 C 119.243 217.777,119.906 205.509,122.861 187.695 C 125.108 174.151,125.508 169.320,124.946 162.500 C 124.151 152.850,124.799 148.832,128.686 139.326 C 131.405 132.675,132.101 130.197,131.955 127.690 C 131.843 125.766,131.074 124.639,130.697 125.846 M149.979 127.246 L 148.633 128.711 150.098 127.365 C 151.461 126.112,151.742 125.781,151.444 125.781 C 151.379 125.781,150.719 126.440,149.979 127.246 M216.504 128.394 C 216.880 128.493,217.495 128.493,217.871 128.394 C 218.247 128.296,217.939 128.216,217.188 128.216 C 216.436 128.216,216.128 128.296,216.504 128.394 M212.598 132.691 C 212.974 132.789,213.589 132.789,213.965 132.691 C 214.341 132.593,214.033 132.513,213.281 132.513 C 212.529 132.513,212.222 132.593,212.598 132.691 M247.525 134.697 C 247.631 135.100,247.427 135.720,247.073 136.075 C 246.603 136.545,246.568 136.720,246.945 136.722 C 247.229 136.724,248.252 137.507,249.219 138.462 C 251.253 140.472,251.985 140.753,250.781 139.062 L 249.946 137.889 250.989 138.286 L 252.031 138.682 251.074 137.544 C 249.368 135.517,247.307 133.863,247.525 134.697 M248.047 143.482 C 248.047 143.549,248.618 144.120,249.316 144.751 L 250.586 145.898 249.439 144.629 C 248.369 143.446,248.047 143.180,248.047 143.482 M248.047 154.419 C 248.047 154.486,248.618 155.058,249.316 155.689 L 250.586 156.836 249.439 155.566 C 248.369 154.383,248.047 154.117,248.047 154.419 M254.568 156.152 C 254.452 156.743,254.519 157.394,254.718 157.598 C 254.940 157.826,255.078 157.414,255.078 156.523 C 255.078 154.813,254.862 154.655,254.568 156.152 M248.828 172.852 C 249.557 173.604,250.241 174.219,250.349 174.219 C 250.456 174.219,249.948 173.604,249.219 172.852 C 248.490 172.100,247.806 171.484,247.698 171.484 C 247.591 171.484,248.099 172.100,248.828 172.852 M211.914 181.987 C 212.344 182.162,212.717 182.507,212.744 182.754 C 212.771 183.001,212.815 183.344,212.842 183.516 C 212.869 183.688,213.638 184.615,214.551 185.575 C 217.996 189.198,227.310 199.136,229.902 201.953 C 231.384 203.564,233.041 205.352,233.584 205.926 C 242.176 215.007,244.482 217.877,243.655 218.462 C 243.291 218.720,243.316 218.764,243.750 218.633 C 244.072 218.536,244.292 218.259,244.238 218.018 C 244.185 217.776,244.303 217.578,244.501 217.578 C 244.997 217.578,247.511 213.492,248.322 211.370 C 248.687 210.414,249.529 209.091,250.194 208.429 C 250.859 207.768,250.956 207.610,250.409 208.078 L 249.414 208.930 249.341 206.410 C 249.251 203.281,247.839 199.984,245.758 198.047 C 244.951 197.295,244.740 197.028,245.290 197.453 C 245.839 197.878,245.322 197.211,244.141 195.971 C 238.956 190.532,229.989 185.829,219.915 183.268 C 215.602 182.171,210.273 181.318,211.914 181.987 M183.398 183.961 C 172.489 186.809,157.417 193.724,158.456 195.405 C 158.599 195.636,158.533 195.712,158.309 195.573 C 157.478 195.060,153.601 199.971,154.144 200.850 C 154.305 201.111,154.244 201.185,153.995 201.031 C 153.547 200.755,152.889 202.238,153.285 202.634 C 153.412 202.761,153.516 202.570,153.516 202.210 C 153.516 201.652,153.632 201.628,154.302 202.047 C 154.734 202.317,155.009 202.743,154.912 202.994 C 154.816 203.245,154.999 203.551,155.318 203.674 C 155.647 203.800,155.796 203.729,155.661 203.511 C 155.325 202.968,155.998 203.029,156.563 203.594 C 156.927 203.958,157.031 203.915,157.031 203.398 C 157.031 203.033,157.217 202.734,157.445 202.734 C 157.672 202.734,157.762 202.890,157.644 203.081 C 157.527 203.271,157.736 203.403,158.110 203.374 C 158.483 203.344,158.752 203.519,158.707 203.761 C 158.662 204.003,159.495 204.934,160.557 205.830 C 161.619 206.725,162.447 207.599,162.396 207.771 C 162.299 208.105,164.284 210.053,165.487 210.803 C 165.885 211.052,166.167 211.448,166.113 211.682 C 166.060 211.917,166.202 212.109,166.429 212.109 C 166.657 212.109,166.756 212.250,166.650 212.421 C 166.344 212.916,166.957 213.641,167.790 213.771 C 168.882 213.941,169.582 214.446,169.317 214.874 C 168.945 215.476,169.538 216.797,170.180 216.797 C 170.508 216.797,170.868 217.148,170.981 217.578 C 171.093 218.008,171.432 218.359,171.735 218.359 C 172.038 218.359,172.391 218.890,172.521 219.539 C 172.651 220.188,172.908 220.813,173.093 220.927 C 173.277 221.041,173.324 220.862,173.196 220.528 C 173.068 220.195,173.136 219.922,173.348 219.922 C 173.836 219.922,174.824 221.085,174.364 221.119 C 174.177 221.132,174.419 221.302,174.902 221.497 C 175.386 221.691,175.781 222.119,175.781 222.448 C 175.781 222.778,176.045 223.047,176.367 223.047 C 176.689 223.047,176.953 223.216,176.953 223.422 C 176.953 223.628,177.418 224.227,177.985 224.753 C 178.598 225.322,178.925 225.951,178.790 226.303 C 178.494 227.074,179.335 227.757,180.342 227.563 C 180.792 227.477,181.411 227.734,181.774 228.159 C 182.126 228.570,182.294 228.906,182.148 228.906 C 182.002 228.906,182.217 229.151,182.625 229.450 C 183.223 229.887,183.276 230.105,182.896 230.564 C 182.510 231.029,182.633 231.295,183.567 232.011 C 184.197 232.494,184.626 233.113,184.520 233.388 C 184.407 233.684,184.736 233.990,185.328 234.139 C 186.669 234.475,186.609 235.087,185.254 234.898 L 184.180 234.749 185.156 235.184 C 191.112 237.836,204.676 238.907,212.633 237.354 C 218.924 236.126,229.378 231.988,230.762 230.177 C 231.030 229.826,231.250 229.693,231.250 229.883 C 231.250 230.072,231.527 229.886,231.865 229.469 C 232.203 229.052,232.352 228.958,232.195 229.260 C 232.005 229.625,232.064 229.713,232.372 229.523 C 232.697 229.322,232.542 228.892,231.846 228.066 C 231.303 227.421,230.859 226.702,230.859 226.467 C 230.859 226.233,230.751 226.150,230.618 226.283 C 230.374 226.527,229.297 225.650,229.297 225.208 C 229.297 225.077,228.612 224.278,227.776 223.433 C 226.939 222.588,225.671 221.145,224.956 220.226 C 224.242 219.307,222.993 217.896,222.180 217.090 C 221.368 216.285,220.703 215.450,220.703 215.235 C 220.703 215.020,220.561 214.844,220.387 214.844 C 220.213 214.844,219.730 214.567,219.313 214.229 C 218.896 213.891,218.745 213.707,218.978 213.821 C 219.211 213.935,219.401 213.780,219.401 213.477 C 219.401 213.173,219.270 213.006,219.111 213.104 C 218.618 213.409,217.578 212.837,217.578 212.263 C 217.578 211.964,217.384 211.719,217.146 211.719 C 216.908 211.719,216.808 211.472,216.924 211.170 C 217.132 210.629,216.193 209.494,215.430 209.364 C 215.215 209.327,215.083 209.139,215.137 208.945 C 215.190 208.752,215.103 208.615,214.941 208.640 C 214.152 208.765,213.644 208.546,213.701 208.105 C 213.829 207.123,213.658 206.719,213.010 206.470 C 212.445 206.253,212.459 206.347,213.105 207.112 C 213.856 208.001,213.854 208.001,212.818 207.087 C 212.245 206.581,211.869 205.922,211.984 205.622 C 212.123 205.260,211.910 205.078,211.347 205.078 C 210.882 205.078,210.603 204.913,210.727 204.712 C 210.851 204.511,210.246 203.603,209.383 202.695 C 208.519 201.788,207.813 200.898,207.813 200.718 C 207.813 200.538,207.641 200.391,207.432 200.391 C 207.222 200.391,206.036 199.308,204.795 197.984 C 203.554 196.661,202.231 195.255,201.855 194.859 C 201.479 194.464,201.172 194.045,201.172 193.928 C 201.172 193.544,199.264 191.797,198.846 191.797 C 198.621 191.797,198.438 191.648,198.438 191.466 C 198.438 191.073,197.079 189.453,196.749 189.453 C 196.374 189.453,194.664 187.628,194.404 186.949 C 194.271 186.604,193.946 186.366,193.681 186.422 C 193.416 186.478,193.192 186.326,193.182 186.085 C 193.066 183.217,189.344 182.409,183.398 183.961 M254.403 192.578 C 254.403 193.545,254.479 193.940,254.573 193.457 C 254.666 192.974,254.666 192.183,254.573 191.699 C 254.479 191.216,254.403 191.611,254.403 192.578 M128.231 196.094 C 128.231 197.061,128.308 197.456,128.401 196.973 C 128.494 196.489,128.494 195.698,128.401 195.215 C 128.308 194.731,128.231 195.127,128.231 196.094 M152.740 203.939 C 152.744 204.458,152.919 205.146,153.130 205.469 C 153.401 205.881,153.440 205.649,153.264 204.688 C 152.955 203.003,152.732 202.685,152.740 203.939 M216.548 211.023 C 216.403 211.259,216.177 211.203,215.973 210.882 C 215.439 210.039,215.572 209.626,216.207 210.153 C 216.527 210.418,216.680 210.810,216.548 211.023 M232.835 228.347 C 233.086 228.650,233.459 228.794,233.664 228.668 C 234.119 228.386,233.781 228.003,232.975 227.885 C 232.504 227.816,232.475 227.913,232.835 228.347 M179.590 246.774 C 181.147 246.849,183.696 246.849,185.254 246.774 C 186.812 246.700,185.537 246.640,182.422 246.640 C 179.307 246.640,178.032 246.700,179.590 246.774 M190.234 247.238 C 187.352 247.457,187.387 247.466,192.383 247.752 C 198.598 248.109,207.391 248.087,209.766 247.709 C 213.914 247.049,197.831 246.661,190.234 247.238 M187.500 254.711 C 187.500 258.767,187.356 261.286,187.133 261.147 C 186.931 261.023,186.792 261.267,186.824 261.690 C 186.868 262.273,187.005 262.358,187.386 262.042 C 187.762 261.730,187.891 259.944,187.891 255.056 L 187.891 248.489 188.965 248.327 C 189.965 248.175,189.951 248.160,188.770 248.105 L 187.500 248.047 187.500 254.711 M146.311 255.556 C 144.093 258.722,148.740 270.145,153.784 273.926 C 157.602 276.787,160.790 274.155,159.715 269.029 C 157.991 260.805,148.979 251.746,146.311 255.556 M186.809 258.984 C 186.809 259.736,186.890 260.044,186.988 259.668 C 187.086 259.292,187.086 258.677,186.988 258.301 C 186.890 257.925,186.809 258.232,186.809 258.984 M186.889 287.205 C 186.945 287.475,187.105 287.959,187.243 288.281 C 187.382 288.604,187.544 292.646,187.604 297.266 L 187.712 305.664 187.801 296.996 C 187.858 291.448,187.748 288.239,187.494 288.082 C 187.275 287.947,187.190 287.685,187.305 287.500 C 187.419 287.315,187.350 287.062,187.150 286.939 C 186.951 286.816,186.833 286.936,186.889 287.205 M186.817 297.461 C 186.822 298.320,186.902 298.626,186.995 298.140 C 187.088 297.654,187.085 296.951,186.987 296.577 C 186.889 296.204,186.813 296.602,186.817 297.461 M189.355 306.538 C 190.483 306.617,192.329 306.617,193.457 306.538 C 194.585 306.459,193.662 306.395,191.406 306.395 C 189.150 306.395,188.228 306.459,189.355 306.538 M203.516 307.277 C 203.516 307.857,204.572 307.889,215.527 307.638 C 237.046 307.146,238.758 306.827,220.410 306.730 C 205.017 306.648,203.516 306.697,203.516 307.277 M166.171 314.063 C 166.171 317.178,166.232 318.452,166.306 316.895 C 166.380 315.337,166.380 312.788,166.306 311.230 C 166.232 309.673,166.171 310.947,166.171 314.063 M203.240 321.612 C 203.468 322.206,202.037 322.269,185.435 322.395 C 175.507 322.470,179.512 322.451,194.336 322.352 C 209.160 322.254,223.750 322.048,226.758 321.896 L 232.227 321.620 225.356 321.552 C 221.577 321.515,214.999 321.368,210.739 321.225 C 203.629 320.987,203.013 321.019,203.240 321.612 M158.349 330.664 C 158.350 333.027,158.414 333.944,158.492 332.701 C 158.570 331.457,158.569 329.524,158.491 328.404 C 158.412 327.284,158.348 328.301,158.349 330.664 " stroke="none" fill="#ba3e28" fill-rule="evenodd"></path><path id="path2" d="M0.000 200.000 L 0.000 400.000 200.000 400.000 L 400.000 400.000 400.000 200.000 L 400.000 0.000 200.000 0.000 L 0.000 0.000 0.000 200.000 M216.134 59.784 C 241.678 64.949,260.328 82.544,264.849 105.742 C 266.766 115.581,267.127 192.671,265.299 201.953 C 261.161 222.965,247.482 239.069,228.027 245.832 C 227.384 246.055,227.344 247.862,227.344 276.355 L 227.344 306.641 237.305 306.641 L 247.266 306.641 247.266 314.063 L 247.266 321.484 251.953 321.484 L 256.641 321.484 256.714 325.879 C 256.755 328.296,256.852 329.263,256.929 328.027 C 257.033 326.373,257.222 325.781,257.646 325.781 C 264.771 325.781,285.563 329.170,291.064 331.229 C 308.527 337.762,257.501 344.772,198.047 344.007 C 174.507 343.704,153.694 342.701,152.539 341.813 C 152.324 341.647,150.922 341.478,149.423 341.436 C 145.897 341.337,145.560 341.016,148.981 341.016 C 150.453 341.016,151.512 340.860,151.390 340.661 C 151.269 340.467,151.523 340.399,151.953 340.512 C 152.383 340.624,152.734 340.871,152.734 341.061 C 152.734 341.667,153.422 341.431,153.690 340.735 C 153.832 340.365,153.827 340.183,153.680 340.330 C 153.533 340.477,153.041 340.390,152.585 340.137 C 152.130 339.883,151.450 339.648,151.074 339.613 C 150.698 339.579,150.159 339.529,149.876 339.502 C 149.577 339.474,149.361 338.970,149.361 338.302 C 149.361 337.669,149.485 337.228,149.636 337.321 C 149.788 337.415,150.129 337.230,150.394 336.910 C 150.804 336.416,150.696 336.328,149.680 336.328 C 149.022 336.328,148.368 336.140,148.226 335.911 C 148.084 335.681,147.747 335.578,147.476 335.682 C 147.167 335.801,147.003 335.557,147.034 335.025 C 147.069 334.427,147.297 334.217,147.814 334.307 C 148.355 334.401,148.479 334.266,148.295 333.786 C 148.159 333.430,148.047 332.339,148.047 331.361 L 148.047 329.582 147.280 330.557 C 146.710 331.282,146.519 332.109,146.539 333.772 C 146.570 336.367,145.949 337.417,145.337 335.806 C 145.119 335.234,144.839 334.766,144.713 334.766 C 144.588 334.766,144.594 334.941,144.727 335.156 C 144.859 335.371,144.782 335.547,144.554 335.547 C 144.327 335.547,144.141 335.377,144.141 335.169 C 144.141 334.960,143.893 334.885,143.590 335.002 C 143.138 335.175,143.040 334.506,143.047 331.278 C 143.053 328.142,143.168 327.344,143.610 327.344 C 143.915 327.344,144.254 327.113,144.362 326.830 C 144.551 326.337,146.745 326.279,147.935 326.736 C 148.315 326.882,148.438 326.269,148.438 324.220 L 148.438 321.512 152.441 321.400 L 156.445 321.289 156.552 313.965 L 156.658 306.641 161.630 306.597 C 164.364 306.573,168.535 306.486,170.898 306.405 C 173.262 306.323,175.591 306.255,176.074 306.253 L 176.953 306.250 176.953 276.234 L 176.953 246.217 175.293 245.731 C 155.568 239.953,139.798 219.521,137.502 196.766 C 136.581 187.643,137.166 111.953,138.197 106.756 C 144.867 73.143,179.369 52.349,216.134 59.784 M132.260 126.362 C 132.811 128.556,131.707 132.528,128.154 141.133 C 125.008 148.753,124.520 152.034,125.100 161.641 C 125.623 170.278,125.306 174.312,123.061 187.627 C 119.063 211.331,119.124 228.762,123.272 248.012 C 126.173 261.476,131.806 275.391,134.356 275.391 C 136.125 275.391,136.051 274.550,133.645 267.325 C 126.462 245.754,124.785 219.228,128.740 189.719 C 129.664 182.824,129.904 183.796,129.078 191.083 C 126.035 217.898,132.232 252.832,143.544 272.638 C 151.527 286.614,145.548 290.257,127.225 282.582 C 103.955 272.834,98.172 228.013,114.022 180.263 C 117.446 169.948,118.494 165.458,119.126 158.398 C 119.869 150.101,121.558 144.901,125.989 137.269 C 129.136 131.849,129.931 130.026,130.272 127.441 C 130.576 125.135,131.787 124.477,132.260 126.362 M277.583 133.762 C 277.701 134.069,277.498 135.783,277.132 137.570 C 275.730 144.426,276.701 151.167,280.865 163.477 C 287.614 183.424,286.825 192.609,276.352 216.037 C 269.113 232.230,268.230 238.048,271.284 249.414 C 276.357 268.295,271.812 282.130,259.375 285.667 C 245.502 289.612,242.609 285.555,249.508 271.830 C 254.390 262.115,255.512 257.989,256.823 244.922 C 258.156 231.640,260.908 224.323,269.531 211.133 C 280.644 194.134,281.644 188.143,276.181 171.289 C 272.141 158.828,271.169 148.017,273.371 140.048 C 274.820 134.804,276.831 131.803,277.583 133.762 M294.922 222.656 C 297.305 225.039,293.842 233.685,288.041 239.834 C 282.892 245.293,278.516 245.374,278.516 240.010 C 278.516 231.704,290.885 218.619,294.922 222.656 M149.915 254.901 C 158.379 258.421,163.959 276.704,156.120 275.233 C 150.073 274.099,142.283 256.587,146.984 254.695 C 148.183 254.213,148.276 254.219,149.915 254.901 M199.805 255.710 C 188.262 257.316,180.814 267.840,183.414 278.870 C 187.031 294.214,207.239 298.545,216.843 286.034 C 226.794 273.070,215.791 253.486,199.805 255.710 M205.424 258.617 C 217.962 261.508,222.545 277.104,213.628 286.533 C 204.218 296.483,187.818 291.073,185.447 277.235 C 183.546 266.137,194.353 256.065,205.424 258.617 M151.172 336.634 C 151.172 337.001,153.008 336.966,153.383 336.591 C 153.527 336.447,153.089 336.328,152.409 336.328 C 151.729 336.328,151.172 336.466,151.172 336.634 M155.762 336.614 C 156.698 336.699,157.424 336.967,157.428 337.229 C 157.432 337.573,157.515 337.568,157.743 337.209 C 157.986 336.825,168.331 336.700,206.467 336.621 L 254.883 336.520 204.492 336.492 C 176.777 336.477,154.849 336.532,155.762 336.614 M162.800 337.392 C 163.502 337.479,164.557 337.478,165.144 337.388 C 165.731 337.299,165.156 337.228,163.867 337.230 C 162.578 337.233,162.098 337.306,162.800 337.392 M169.238 337.379 C 169.614 337.477,170.229 337.477,170.605 337.379 C 170.981 337.280,170.674 337.200,169.922 337.200 C 169.170 337.200,168.862 337.280,169.238 337.379 " stroke="none" fill="#fbfbfb" fill-rule="evenodd"></path><path id="path3" d="M173.242 73.224 C 165.613 77.953,159.039 84.919,155.162 92.383 C 154.715 93.242,153.609 94.824,152.703 95.898 C 151.054 97.854,149.535 100.760,149.043 102.897 C 148.806 103.925,148.930 103.848,150.306 102.116 C 152.925 98.818,160.290 92.964,161.426 93.278 C 161.587 93.323,161.719 93.195,161.719 92.995 C 161.719 92.795,162.070 92.519,162.499 92.383 C 163.327 92.120,163.926 90.570,163.479 89.847 C 163.285 89.533,163.070 89.533,162.695 89.844 C 162.356 90.126,162.096 90.138,161.936 89.880 C 161.180 88.656,177.511 82.031,181.286 82.031 C 181.696 82.031,182.031 81.852,182.031 81.633 C 182.031 81.400,182.450 81.340,183.041 81.488 L 184.050 81.742 183.023 80.715 C 182.458 80.150,181.872 79.675,181.721 79.659 C 181.569 79.644,180.918 78.994,180.273 78.215 C 179.629 77.435,179.365 76.955,179.688 77.146 C 180.192 77.445,180.199 77.402,179.741 76.837 C 179.448 76.476,179.052 76.277,178.862 76.395 C 178.671 76.512,178.516 76.347,178.516 76.028 C 178.516 75.708,178.290 75.214,178.014 74.930 C 176.672 73.548,175.789 71.937,176.267 71.744 C 176.537 71.635,176.582 71.542,176.367 71.538 C 176.152 71.533,174.746 72.292,173.242 73.224 M200.586 80.078 C 202.949 80.208,204.477 80.349,203.981 80.392 C 203.485 80.434,203.180 80.633,203.304 80.833 C 203.427 81.033,203.130 81.477,202.643 81.820 C 201.892 82.349,201.847 82.501,202.344 82.818 C 202.865 83.150,202.865 83.195,202.344 83.225 C 200.492 83.330,203.772 83.934,206.325 83.957 C 207.977 83.972,209.421 84.134,209.534 84.316 C 209.720 84.617,215.324 85.224,218.750 85.315 C 220.245 85.355,220.542 83.957,219.420 82.162 C 219.264 81.912,219.357 81.632,219.626 81.541 C 220.186 81.351,215.638 80.652,210.156 80.085 C 208.115 79.874,204.160 79.733,201.367 79.771 L 196.289 79.842 200.586 80.078 M208.398 90.897 C 205.440 91.146,205.013 91.336,205.474 92.197 C 205.743 92.700,205.750 92.969,205.495 92.969 C 205.279 92.969,205.204 93.232,205.327 93.555 C 205.502 94.008,205.212 94.153,204.046 94.193 C 203.217 94.222,204.385 94.466,206.641 94.734 C 215.282 95.763,218.259 96.170,221.067 96.703 C 222.663 97.007,224.055 97.169,224.159 97.065 C 224.263 96.960,224.077 96.875,223.745 96.875 C 223.041 96.875,222.076 94.806,222.395 93.978 C 222.514 93.665,222.403 93.324,222.146 93.220 C 221.890 93.116,222.104 93.017,222.624 93.000 C 224.387 92.942,223.199 92.591,218.723 91.847 C 213.532 90.984,210.585 90.713,208.398 90.897 M160.156 99.996 C 160.156 100.354,157.814 101.642,157.801 101.292 C 157.794 101.118,157.608 101.288,157.386 101.668 C 157.164 102.049,156.837 102.270,156.658 102.159 C 156.478 102.048,156.227 102.231,156.098 102.566 C 155.970 102.901,155.707 103.077,155.514 102.958 C 155.321 102.839,154.877 103.178,154.528 103.712 C 154.178 104.246,153.730 104.640,153.533 104.587 C 152.180 104.227,148.187 110.732,147.837 113.867 L 147.620 115.820 148.573 114.063 C 149.746 111.900,153.373 108.391,156.470 106.422 C 157.746 105.611,158.848 104.800,158.920 104.620 C 158.992 104.440,159.212 104.391,159.408 104.513 C 159.605 104.634,159.766 104.518,159.766 104.255 C 159.766 103.991,159.874 103.885,160.007 104.018 C 160.140 104.151,160.506 104.003,160.820 103.689 C 161.134 103.375,161.540 103.210,161.722 103.322 C 161.904 103.435,162.166 103.170,162.305 102.734 C 162.443 102.298,162.719 102.043,162.919 102.166 C 163.287 102.393,163.334 102.251,163.412 100.684 C 163.450 99.907,163.264 99.803,161.806 99.788 C 160.898 99.778,160.156 99.872,160.156 99.996 M205.176 102.212 C 204.907 102.320,204.688 102.735,204.688 103.134 C 204.688 103.534,204.512 103.969,204.297 104.102 C 203.532 104.574,203.924 105.078,205.055 105.078 C 205.687 105.078,206.302 105.237,206.423 105.432 C 206.543 105.627,207.000 105.692,207.439 105.577 C 208.338 105.342,220.653 107.138,224.447 108.058 C 225.001 108.192,225.260 108.066,225.260 107.660 C 225.260 107.333,225.114 107.156,224.935 107.267 C 224.638 107.450,224.448 106.881,224.563 106.152 C 224.589 105.991,224.434 105.859,224.219 105.859 C 224.004 105.859,223.825 105.640,223.821 105.371 C 223.789 103.010,209.288 100.553,205.176 102.212 M160.784 109.833 C 160.975 110.142,160.849 110.206,160.395 110.032 C 160.027 109.890,159.821 109.930,159.938 110.120 C 160.196 110.536,159.060 111.031,158.558 110.720 C 158.363 110.600,158.203 110.690,158.203 110.921 C 158.203 111.152,157.544 111.646,156.738 112.018 C 155.933 112.391,155.131 112.919,154.956 113.192 C 154.782 113.465,154.475 113.586,154.273 113.462 C 154.071 113.337,153.906 113.421,153.906 113.649 C 153.906 113.876,153.719 114.063,153.489 114.063 C 151.883 114.063,147.689 119.672,147.137 122.559 C 146.833 124.148,147.401 124.215,148.043 122.666 C 148.627 121.256,151.123 118.901,153.957 117.087 C 157.858 114.589,158.398 114.279,158.691 114.366 C 158.853 114.414,158.984 114.267,158.984 114.039 C 158.984 113.812,159.160 113.734,159.375 113.867 C 159.590 114.000,159.766 113.912,159.766 113.672 C 159.766 113.432,159.941 113.344,160.156 113.477 C 160.371 113.609,160.547 113.521,160.547 113.281 C 160.547 113.041,160.723 112.953,160.938 113.086 C 161.152 113.219,161.328 113.122,161.328 112.872 C 161.328 112.599,161.603 112.521,162.012 112.677 C 162.560 112.885,162.599 112.839,162.207 112.445 C 161.531 111.764,161.587 111.486,162.598 110.505 C 163.081 110.035,163.272 109.766,163.021 109.906 C 162.771 110.047,162.101 109.985,161.534 109.770 C 160.766 109.478,160.574 109.494,160.784 109.833 M205.481 111.620 C 203.662 111.693,202.080 111.881,201.966 112.037 C 201.851 112.193,201.274 112.533,200.684 112.793 C 198.775 113.631,199.523 113.971,203.906 114.258 C 206.270 114.412,208.203 114.695,208.203 114.886 C 208.203 115.077,208.774 115.205,209.473 115.169 C 210.998 115.091,219.526 116.503,224.414 117.643 C 229.477 118.823,235.040 120.827,240.544 123.453 C 243.185 124.713,245.589 125.651,245.885 125.537 C 251.987 123.195,222.412 111.641,211.426 112.075 C 210.495 112.112,209.766 111.962,209.766 111.734 C 209.766 111.511,209.546 111.364,209.277 111.408 C 209.009 111.451,207.301 111.547,205.481 111.620 M162.891 117.162 C 162.139 117.314,160.702 117.805,159.698 118.254 C 158.694 118.703,157.771 118.969,157.647 118.845 C 157.523 118.721,157.422 118.835,157.422 119.099 C 157.422 119.362,157.260 119.477,157.063 119.355 C 156.865 119.233,156.426 119.411,156.086 119.751 C 155.747 120.090,155.469 120.234,155.469 120.070 C 155.469 119.907,155.211 120.114,154.895 120.531 C 154.580 120.948,154.316 121.150,154.309 120.981 C 154.295 120.618,153.759 121.031,150.966 123.564 C 148.695 125.622,147.504 127.749,147.099 130.469 L 146.838 132.227 147.577 130.664 C 148.647 128.404,150.176 126.738,152.838 124.930 C 155.209 123.320,161.668 120.080,162.207 120.231 C 162.368 120.276,162.500 120.118,162.500 119.880 C 162.500 119.642,162.764 119.549,163.086 119.673 C 163.408 119.796,163.672 119.708,163.672 119.477 C 163.672 119.246,163.945 119.162,164.278 119.290 C 164.671 119.440,164.787 119.365,164.608 119.075 C 164.418 118.768,164.607 118.699,165.209 118.857 C 166.026 119.070,166.044 119.038,165.466 118.399 C 165.124 118.021,164.844 117.506,164.844 117.254 C 164.844 117.003,164.712 116.817,164.551 116.842 C 164.390 116.867,163.643 117.011,162.891 117.162 M198.521 118.651 C 196.329 118.729,194.986 118.928,195.126 119.155 C 195.254 119.362,194.997 119.531,194.554 119.531 C 194.010 119.531,193.750 119.784,193.750 120.313 C 193.750 121.112,195.337 121.392,198.633 121.174 C 199.277 121.131,201.695 121.109,204.005 121.124 C 207.555 121.147,208.244 121.052,208.452 120.510 C 208.843 119.490,207.986 119.003,205.880 119.051 C 204.805 119.076,203.822 118.930,203.697 118.728 C 203.572 118.525,203.172 118.396,202.809 118.440 C 202.446 118.485,200.516 118.580,198.521 118.651 M207.500 124.680 C 207.135 124.826,205.737 124.957,204.395 124.973 C 203.046 124.988,201.953 125.175,201.953 125.391 C 201.953 125.605,201.191 125.781,200.260 125.781 C 198.560 125.781,197.863 126.685,198.985 127.435 C 199.221 127.593,198.931 127.725,198.340 127.728 C 197.749 127.732,197.266 127.877,197.266 128.051 C 197.266 128.225,199.007 128.358,201.136 128.346 C 203.264 128.334,204.924 128.191,204.824 128.029 C 204.521 127.540,211.909 127.700,218.555 128.327 C 229.726 129.381,235.513 130.811,242.525 134.248 C 247.001 136.442,247.630 136.517,247.650 134.855 C 247.670 133.259,237.772 128.582,230.499 126.750 C 224.080 125.133,209.622 123.832,207.500 124.680 M160.811 126.839 C 160.949 127.224,160.924 127.415,160.756 127.263 C 160.588 127.111,159.769 127.334,158.936 127.759 C 158.103 128.184,157.422 128.433,157.422 128.313 C 157.422 128.193,157.044 128.447,156.581 128.878 C 156.119 129.308,155.610 129.580,155.451 129.481 C 155.291 129.382,155.059 129.566,154.935 129.889 C 154.811 130.212,154.569 130.430,154.397 130.375 C 152.684 129.818,147.415 136.812,147.044 140.135 L 146.836 141.992 147.682 140.458 C 148.826 138.382,151.657 135.693,154.917 133.585 C 156.402 132.625,157.676 131.706,157.748 131.542 C 157.820 131.379,158.040 131.344,158.236 131.466 C 158.433 131.587,158.594 131.490,158.594 131.250 C 158.594 131.010,158.770 130.922,158.984 131.055 C 159.199 131.187,159.375 131.100,159.375 130.859 C 159.375 130.619,159.551 130.531,159.766 130.664 C 159.980 130.797,160.156 130.715,160.156 130.482 C 160.156 130.249,160.576 129.899,161.089 129.704 C 162.195 129.284,162.265 127.095,161.193 126.494 C 160.687 126.211,160.610 126.281,160.811 126.839 M206.445 133.251 C 199.355 133.652,199.633 133.617,200.781 133.984 C 201.318 134.156,201.494 134.317,201.172 134.342 C 200.651 134.382,200.651 134.433,201.172 134.805 C 201.648 135.145,201.601 135.190,200.920 135.042 C 200.052 134.854,199.877 135.580,200.613 136.316 C 200.817 136.520,204.586 136.789,208.988 136.913 C 232.819 137.584,247.172 143.273,253.455 154.537 L 254.737 156.836 254.499 154.688 C 252.974 140.962,232.396 131.782,206.445 133.251 M164.998 133.918 C 165.108 134.096,164.432 134.228,163.496 134.211 C 162.551 134.194,161.892 134.340,162.015 134.539 C 162.138 134.738,161.938 134.784,161.567 134.641 C 161.199 134.500,160.993 134.539,161.110 134.729 C 161.368 135.146,160.232 135.640,159.730 135.330 C 159.535 135.209,159.375 135.326,159.375 135.589 C 159.375 135.852,159.272 135.965,159.147 135.839 C 159.021 135.714,158.576 135.904,158.157 136.263 C 157.739 136.621,157.358 136.831,157.312 136.730 C 157.158 136.399,153.363 139.181,151.232 141.187 C 148.610 143.656,147.376 145.745,146.846 148.612 C 146.320 151.458,146.600 151.749,147.671 149.469 C 149.137 146.351,159.609 138.037,161.394 138.574 C 161.573 138.628,161.719 138.486,161.719 138.258 C 161.719 138.031,161.895 137.953,162.109 138.086 C 162.324 138.219,162.500 138.112,162.500 137.849 C 162.500 137.585,162.609 137.479,162.742 137.612 C 162.875 137.745,163.249 137.588,163.573 137.264 C 163.898 136.939,164.413 136.770,164.719 136.887 C 165.071 137.022,165.173 136.935,164.995 136.648 C 164.807 136.343,164.934 136.279,165.386 136.453 C 165.834 136.625,165.965 136.562,165.780 136.262 C 165.591 135.958,165.772 135.885,166.346 136.035 L 167.189 136.255 166.418 135.173 C 165.995 134.578,165.760 133.980,165.897 133.843 C 166.034 133.706,165.842 133.594,165.472 133.594 C 165.101 133.594,164.888 133.740,164.998 133.918 M275.001 136.035 C 271.053 144.563,271.527 156.780,276.366 171.233 C 281.926 187.839,280.854 194.154,269.531 211.523 C 260.769 224.964,258.304 231.784,256.823 246.680 C 255.684 258.144,254.270 263.179,249.772 271.792 C 243.784 283.258,244.631 287.230,252.919 286.558 C 263.855 285.670,269.869 280.875,272.314 271.094 C 273.330 267.031,272.992 256.395,271.699 251.758 C 267.887 238.084,268.574 232.819,276.466 215.234 C 286.769 192.280,287.418 183.783,280.461 162.964 C 276.492 151.084,275.534 144.874,276.711 138.641 C 277.813 132.806,277.040 131.629,275.001 136.035 M209.082 142.854 C 206.880 142.932,205.078 143.147,205.078 143.331 C 205.078 143.515,204.639 143.776,204.102 143.910 C 203.497 144.062,203.125 144.433,203.125 144.884 C 203.125 145.284,202.773 145.704,202.344 145.816 C 200.050 146.416,202.049 146.838,208.105 147.032 C 230.695 147.755,247.357 154.832,253.721 166.408 L 255.116 168.945 254.861 166.797 C 253.184 152.680,232.786 142.012,209.082 142.854 M163.980 143.181 C 163.863 143.298,163.268 143.484,162.658 143.595 C 162.047 143.706,161.330 143.977,161.064 144.197 C 160.799 144.418,160.398 144.485,160.173 144.347 C 159.949 144.208,159.766 144.291,159.766 144.531 C 159.766 144.771,159.590 144.859,159.375 144.727 C 159.160 144.594,158.984 144.701,158.984 144.964 C 158.984 145.227,158.878 145.336,158.747 145.206 C 158.617 145.076,158.151 145.304,157.712 145.713 C 157.272 146.122,156.764 146.365,156.581 146.253 C 156.399 146.140,156.250 146.234,156.250 146.461 C 156.250 146.689,156.005 146.875,155.706 146.875 C 155.407 146.875,155.061 147.139,154.937 147.461 C 154.813 147.783,154.447 148.047,154.124 148.047 C 151.775 148.047,147.084 155.053,146.668 159.183 L 146.432 161.523 147.693 159.266 C 149.820 155.460,155.368 150.649,159.704 148.854 C 160.382 148.573,160.938 148.178,160.938 147.976 C 160.938 147.775,161.113 147.719,161.328 147.852 C 161.543 147.984,161.719 147.878,161.719 147.614 C 161.719 147.351,161.833 147.250,161.973 147.390 C 162.113 147.530,162.421 147.395,162.657 147.091 C 162.893 146.787,163.438 146.482,163.867 146.414 C 164.297 146.345,164.843 146.041,165.080 145.737 C 165.338 145.407,165.793 145.293,166.210 145.453 C 167.015 145.762,166.303 144.642,165.285 143.997 C 164.832 143.711,164.832 143.607,165.285 143.320 C 165.687 143.065,165.618 142.979,165.007 142.975 C 164.559 142.971,164.097 143.064,163.980 143.181 M163.537 152.441 C 163.698 152.702,162.792 152.904,162.012 152.781 C 161.851 152.755,161.719 152.921,161.719 153.148 C 161.719 153.376,161.543 153.453,161.328 153.320 C 161.113 153.188,160.938 153.241,160.938 153.440 C 160.938 153.638,160.146 154.102,159.180 154.471 C 158.213 154.841,157.422 155.261,157.422 155.406 C 157.422 155.550,156.938 155.883,156.348 156.145 C 151.841 158.142,146.980 164.433,146.586 168.778 C 146.353 171.344,146.839 171.839,147.580 169.791 C 148.667 166.784,154.005 162.033,159.961 158.770 C 161.465 157.947,162.799 157.122,162.926 156.937 C 163.053 156.752,163.524 156.574,163.973 156.540 C 164.422 156.506,164.715 156.358,164.624 156.211 C 164.533 156.063,164.904 155.831,165.448 155.694 C 165.993 155.558,166.333 155.275,166.204 155.067 C 166.074 154.856,166.458 154.685,167.067 154.682 C 167.886 154.677,168.020 154.585,167.597 154.317 C 167.285 154.119,166.889 154.044,166.718 154.150 C 166.546 154.256,166.406 154.050,166.406 153.692 C 166.406 153.242,166.195 153.115,165.723 153.279 C 165.153 153.478,165.165 153.420,165.797 152.931 C 166.663 152.261,166.687 152.278,164.783 152.204 C 163.998 152.173,163.437 152.280,163.537 152.441 M206.055 153.809 C 205.143 154.032,204.034 154.755,203.959 155.176 C 203.930 155.337,203.906 155.645,203.906 155.859 C 203.906 156.074,203.576 156.580,203.172 156.984 C 202.394 157.762,203.141 157.860,214.258 158.437 C 230.799 159.296,248.472 168.673,253.941 179.492 L 255.125 181.836 254.888 179.402 C 253.787 168.122,241.900 158.757,223.828 154.930 C 219.008 153.909,208.387 153.240,206.055 153.809 M164.709 162.598 C 164.881 162.877,164.674 162.959,163.574 163.047 C 163.306 163.068,162.852 163.307,162.566 163.578 C 162.280 163.848,161.885 163.970,161.687 163.848 C 161.490 163.726,161.328 163.822,161.328 164.063 C 161.328 164.303,161.152 164.391,160.938 164.258 C 160.723 164.125,160.547 164.213,160.547 164.453 C 160.547 164.693,160.391 164.794,160.201 164.676 C 160.010 164.558,159.637 164.723,159.371 165.043 C 159.106 165.363,158.661 165.625,158.383 165.625 C 158.105 165.625,157.819 165.757,157.747 165.918 C 157.676 166.079,156.930 166.561,156.090 166.989 C 151.222 169.471,146.952 175.261,146.581 179.881 C 146.339 182.896,146.562 183.047,147.642 180.605 C 148.792 178.005,153.466 173.567,157.657 171.096 C 159.569 169.969,161.262 168.848,161.420 168.605 C 161.578 168.363,161.709 168.323,161.713 168.518 C 161.716 168.712,162.051 168.571,162.456 168.204 C 162.862 167.837,163.565 167.508,164.019 167.474 C 164.473 167.440,164.844 167.300,164.844 167.164 C 164.844 167.027,165.542 166.601,166.396 166.216 C 167.249 165.831,167.854 165.365,167.740 165.180 C 167.625 164.995,167.713 164.844,167.933 164.844 C 168.154 164.844,168.228 164.565,168.097 164.225 C 167.905 163.723,167.791 163.704,167.493 164.127 C 167.239 164.489,167.179 164.319,167.298 163.574 C 167.393 162.983,167.318 162.478,167.133 162.451 C 165.893 162.271,164.557 162.352,164.709 162.598 M209.180 164.823 C 206.816 164.942,205.234 165.151,205.664 165.287 C 206.241 165.470,206.087 165.554,205.078 165.611 C 204.326 165.652,203.932 165.776,204.202 165.885 C 204.472 165.993,204.593 166.243,204.472 166.440 C 204.350 166.636,204.420 166.797,204.628 166.797 C 205.277 166.797,204.630 168.357,203.958 168.412 C 202.633 168.520,207.339 169.074,209.863 169.106 C 211.313 169.125,212.500 169.312,212.500 169.522 C 212.500 169.732,213.159 169.881,213.965 169.852 C 215.567 169.795,216.149 169.891,221.160 171.047 C 235.932 174.452,248.240 182.410,252.695 191.436 L 254.319 194.727 254.159 191.365 C 253.786 183.495,247.755 176.542,236.570 171.088 C 229.497 167.639,218.852 164.559,215.932 165.117 C 215.384 165.222,214.816 165.116,214.671 164.881 C 214.526 164.645,214.198 164.488,213.942 164.530 C 213.686 164.573,211.543 164.705,209.180 164.823 M163.530 174.374 C 161.997 175.008,160.635 175.687,160.503 175.883 C 160.372 176.079,160.183 176.180,160.083 176.108 C 159.663 175.804,154.776 179.205,152.366 181.478 C 148.405 185.216,146.458 189.636,147.092 193.457 C 147.402 195.333,147.806 195.314,148.380 193.396 C 149.317 190.268,153.387 185.712,157.915 182.722 C 161.568 180.309,163.473 179.154,163.628 179.260 C 163.712 179.317,163.887 179.197,164.019 178.994 C 164.415 178.381,166.793 177.295,167.194 177.543 C 167.411 177.677,167.460 177.492,167.312 177.105 C 167.162 176.714,167.213 176.532,167.433 176.668 C 168.279 177.191,168.764 176.335,168.059 175.563 C 167.313 174.745,167.228 174.285,167.690 173.559 C 168.173 172.800,166.576 173.113,163.530 174.374 M205.566 176.592 C 204.756 176.837,204.297 177.226,204.297 177.667 C 204.297 178.048,204.103 178.553,203.867 178.789 C 203.554 179.102,203.675 179.295,204.309 179.496 C 204.990 179.712,205.063 179.848,204.641 180.115 C 204.274 180.347,204.601 180.479,205.664 180.526 C 206.523 180.563,205.029 180.714,202.344 180.861 C 196.360 181.187,190.183 182.023,190.459 182.470 C 190.572 182.652,190.084 182.701,189.375 182.578 C 188.395 182.409,188.227 182.456,188.672 182.774 C 188.994 183.003,189.697 183.195,190.234 183.201 C 191.181 183.210,193.141 185.140,193.182 186.103 C 193.192 186.334,193.416 186.478,193.681 186.422 C 193.946 186.366,194.271 186.604,194.404 186.949 C 194.664 187.628,196.374 189.453,196.749 189.453 C 197.079 189.453,198.438 191.073,198.438 191.466 C 198.438 191.648,198.621 191.797,198.846 191.797 C 199.264 191.797,201.172 193.544,201.172 193.928 C 201.172 194.045,201.479 194.464,201.855 194.859 C 202.231 195.255,203.554 196.661,204.795 197.984 C 206.036 199.308,207.222 200.391,207.432 200.391 C 207.641 200.391,207.813 200.538,207.813 200.718 C 207.813 200.898,208.519 201.788,209.383 202.695 C 210.246 203.603,210.851 204.511,210.727 204.712 C 210.603 204.913,210.882 205.078,211.347 205.078 C 211.910 205.078,212.123 205.260,211.984 205.622 C 211.869 205.922,212.245 206.581,212.818 207.087 C 213.854 208.001,213.856 208.001,213.105 207.112 C 212.459 206.347,212.445 206.253,213.010 206.470 C 213.658 206.719,213.829 207.123,213.701 208.105 C 213.644 208.546,214.152 208.765,214.941 208.640 C 215.103 208.615,215.190 208.752,215.137 208.945 C 215.083 209.139,215.152 209.271,215.291 209.238 C 215.826 209.114,217.124 210.648,216.924 211.170 C 216.808 211.472,216.908 211.719,217.146 211.719 C 217.384 211.719,217.578 211.964,217.578 212.263 C 217.578 212.837,218.618 213.409,219.111 213.104 C 219.270 213.006,219.401 213.173,219.401 213.477 C 219.401 213.780,219.211 213.935,218.978 213.821 C 218.745 213.707,218.896 213.891,219.313 214.229 C 219.730 214.567,220.213 214.844,220.387 214.844 C 220.561 214.844,220.703 215.020,220.703 215.235 C 220.703 215.450,221.368 216.285,222.180 217.090 C 222.993 217.896,224.242 219.307,224.956 220.226 C 225.671 221.145,226.939 222.588,227.776 223.433 C 228.612 224.278,229.297 225.077,229.297 225.208 C 229.297 225.339,229.561 225.710,229.883 226.032 C 230.205 226.355,230.469 226.492,230.469 226.337 C 230.469 226.183,230.881 226.654,231.386 227.384 C 232.084 228.394,232.200 228.844,231.874 229.267 C 231.598 229.626,231.827 229.576,232.520 229.125 C 233.478 228.501,234.130 227.747,233.230 228.304 C 233.030 228.427,232.762 228.359,232.634 228.152 C 232.502 227.938,232.772 227.847,233.259 227.940 C 234.628 228.204,243.698 220.153,243.516 218.835 C 243.495 218.681,243.672 218.379,243.911 218.164 C 244.150 217.949,244.274 217.813,244.187 217.862 C 244.100 217.910,243.463 217.153,242.771 216.180 C 241.714 214.694,238.763 211.400,233.584 205.926 C 233.041 205.352,231.384 203.564,229.902 201.953 C 227.310 199.136,217.996 189.198,214.551 185.575 C 213.638 184.615,212.869 183.688,212.842 183.516 C 212.815 183.344,212.771 183.001,212.744 182.754 C 212.717 182.507,212.344 182.162,211.914 181.987 C 210.273 181.318,215.602 182.171,219.915 183.268 C 236.844 187.572,249.078 197.210,249.340 206.447 L 249.414 209.043 250.828 207.459 C 257.460 200.025,246.773 186.621,228.906 179.965 C 224.128 178.184,221.065 177.379,216.602 176.730 C 213.847 176.329,206.734 176.240,205.566 176.592 M166.306 184.799 C 165.928 185.019,165.417 185.074,165.171 184.922 C 164.925 184.769,164.825 184.810,164.950 185.012 C 165.074 185.213,164.165 185.770,162.929 186.249 C 161.693 186.729,160.344 187.426,159.931 187.799 C 159.518 188.172,158.671 188.740,158.049 189.061 C 151.032 192.689,147.211 201.611,150.528 206.624 C 152.488 209.585,152.930 209.383,152.930 205.527 C 152.930 200.041,156.068 195.821,163.134 191.806 C 164.826 190.845,166.270 189.921,166.342 189.753 C 166.414 189.585,166.634 189.548,166.830 189.669 C 167.027 189.790,167.188 189.693,167.188 189.453 C 167.188 189.213,167.363 189.125,167.578 189.258 C 167.793 189.391,167.969 189.319,167.969 189.098 C 167.969 188.877,168.209 188.789,168.503 188.901 C 168.943 189.070,168.966 188.744,168.635 187.034 C 168.139 184.481,167.653 184.014,166.306 184.799 M215.631 210.011 C 215.643 210.683,216.306 211.415,216.548 211.023 C 216.680 210.810,216.527 210.418,216.207 210.153 C 215.887 209.887,215.628 209.823,215.631 210.011 M290.258 222.913 C 283.152 226.454,276.113 239.430,279.474 242.791 C 282.215 245.532,287.794 241.517,292.579 233.360 C 297.379 225.176,296.217 219.943,290.258 222.913 M176.953 276.758 L 176.953 306.641 166.992 306.641 L 157.031 306.641 157.031 314.063 L 157.031 321.484 152.930 321.484 L 148.828 321.484 148.779 325.195 C 148.752 327.236,148.730 329.346,148.730 329.883 C 148.730 330.420,148.752 332.002,148.779 333.398 L 148.828 335.938 153.516 335.938 L 158.203 335.938 158.203 329.353 L 158.203 322.768 160.604 322.517 C 161.925 322.379,172.115 322.266,183.248 322.266 C 201.081 322.266,203.464 322.196,203.266 321.680 C 203.071 321.170,200.624 321.094,184.529 321.094 L 166.016 321.094 166.016 314.453 L 166.016 307.813 184.766 307.813 C 201.172 307.813,203.516 307.739,203.516 307.227 C 203.516 306.725,202.365 306.641,195.508 306.641 L 187.500 306.641 187.500 297.539 C 187.500 290.799,187.373 288.301,187.012 287.911 C 186.616 287.485,186.630 287.446,187.089 287.709 C 187.399 287.886,187.231 287.438,186.714 286.713 C 182.297 280.509,181.400 269.026,185.042 265.304 C 185.320 265.020,185.547 264.637,185.547 264.453 C 185.547 264.269,185.833 263.833,186.182 263.484 C 186.531 263.134,186.816 262.422,186.816 261.900 C 186.816 261.379,186.970 261.047,187.158 261.163 C 187.348 261.281,187.500 258.419,187.500 254.711 L 187.500 248.047 190.918 247.973 L 194.336 247.899 190.820 247.666 L 187.305 247.432 190.234 247.231 C 191.900 247.117,189.667 246.997,185.059 246.953 L 176.953 246.875 176.953 276.758 M186.988 259.668 C 186.890 260.044,186.809 259.736,186.809 258.984 C 186.809 258.232,186.890 257.925,186.988 258.301 C 187.086 258.677,187.086 259.292,186.988 259.668 M186.995 298.140 C 186.902 298.626,186.822 298.320,186.817 297.461 C 186.813 296.602,186.889 296.204,186.987 296.577 C 187.085 296.951,187.088 297.654,186.995 298.140 " stroke="none" fill="#f5a947" fill-rule="evenodd"></path><path id="path4" d="M190.430 80.509 C 178.393 81.968,160.653 87.803,161.936 89.880 C 162.096 90.138,162.356 90.126,162.695 89.844 C 163.070 89.533,163.285 89.533,163.479 89.847 C 163.929 90.575,163.347 92.035,162.411 92.527 C 160.968 93.285,162.473 92.725,165.820 91.259 C 175.596 86.978,189.165 84.447,203.069 84.312 C 208.623 84.258,209.048 84.215,205.985 84.015 C 203.039 83.823,200.374 83.219,202.376 83.197 C 202.832 83.192,202.826 83.125,202.344 82.818 C 201.847 82.501,201.892 82.349,202.643 81.820 C 203.130 81.477,203.435 81.045,203.321 80.861 C 203.207 80.676,203.512 80.448,203.998 80.355 C 205.663 80.035,193.169 80.176,190.430 80.509 M191.558 91.039 C 182.128 91.953,171.785 94.582,164.355 97.954 C 161.170 99.399,160.632 99.917,162.388 99.847 C 163.249 99.813,163.440 99.969,163.408 100.684 C 163.338 102.237,163.288 102.394,162.932 102.174 C 162.739 102.055,162.481 102.220,162.358 102.541 C 162.163 103.049,162.324 103.044,163.586 102.506 C 174.321 97.927,188.768 95.135,203.125 94.864 C 206.448 94.802,206.611 94.767,204.688 94.531 C 202.839 94.305,202.749 94.259,204.046 94.204 C 205.210 94.155,205.501 94.007,205.327 93.555 C 205.204 93.232,205.279 92.969,205.495 92.969 C 205.750 92.969,205.743 92.700,205.474 92.197 C 205.039 91.384,205.192 91.298,207.813 90.885 C 209.676 90.592,194.710 90.733,191.558 91.039 M193.945 101.447 C 186.143 101.983,176.337 103.850,169.602 106.082 C 165.495 107.443,158.446 110.529,158.750 110.833 C 158.842 110.925,159.328 110.776,159.830 110.501 C 160.332 110.226,161.315 109.978,162.014 109.950 L 163.286 109.898 162.476 110.653 C 162.030 111.068,161.760 111.654,161.875 111.954 C 161.991 112.254,161.885 112.500,161.641 112.500 C 161.397 112.500,161.282 112.584,161.384 112.687 C 161.487 112.789,163.296 112.257,165.405 111.503 C 175.026 108.064,186.246 106.115,199.609 105.562 C 203.369 105.406,205.874 105.222,205.176 105.154 C 203.922 105.030,203.538 104.571,204.297 104.102 C 204.512 103.969,204.688 103.538,204.688 103.144 C 204.688 102.187,205.401 101.965,208.723 101.890 L 211.523 101.827 208.594 101.550 C 205.583 101.266,197.414 101.209,193.945 101.447 M207.715 105.744 C 208.198 105.838,208.989 105.838,209.473 105.744 C 209.956 105.651,209.561 105.575,208.594 105.575 C 207.627 105.575,207.231 105.651,207.715 105.744 M188.086 111.203 C 177.705 111.865,162.017 115.747,158.374 118.554 C 157.958 118.875,158.584 118.725,159.766 118.221 C 163.030 116.828,164.605 116.677,165.061 117.713 C 165.369 118.412,165.266 118.638,164.454 119.049 C 163.884 119.337,163.802 119.446,164.258 119.311 C 174.118 116.380,183.973 114.864,195.703 114.471 C 200.322 114.316,203.091 114.161,201.855 114.126 C 199.379 114.056,198.918 113.475,200.781 112.771 C 201.426 112.528,201.953 112.191,201.953 112.024 C 201.953 111.856,203.491 111.691,205.371 111.657 L 208.789 111.595 205.273 111.308 C 201.793 111.023,191.854 110.963,188.086 111.203 M210.254 111.988 C 210.630 112.086,211.245 112.086,211.621 111.988 C 211.997 111.890,211.689 111.809,210.938 111.809 C 210.186 111.809,209.878 111.890,210.254 111.988 M205.572 114.733 C 206.166 114.823,207.044 114.821,207.525 114.728 C 208.005 114.635,207.520 114.562,206.445 114.565 C 205.371 114.568,204.978 114.644,205.572 114.733 M186.631 118.951 C 176.701 120.153,157.422 126.327,157.422 128.305 C 157.422 128.430,158.103 128.184,158.936 127.759 C 159.769 127.334,160.560 127.096,160.694 127.230 C 160.828 127.364,160.938 127.254,160.938 126.986 C 160.938 125.901,161.829 126.883,161.922 128.071 C 162.004 129.107,161.846 129.416,161.089 129.704 C 160.576 129.899,160.156 130.147,160.156 130.254 C 160.156 130.478,161.030 130.152,164.063 128.796 C 171.581 125.434,185.533 122.158,195.703 121.367 L 197.461 121.230 195.605 121.162 C 193.637 121.090,192.633 119.531,194.554 119.531 C 194.997 119.531,195.254 119.362,195.126 119.155 C 194.986 118.928,196.329 118.729,198.521 118.651 C 200.968 118.564,200.305 118.509,196.484 118.483 C 193.369 118.462,188.935 118.672,186.631 118.951 M197.852 125.041 C 188.379 125.921,177.391 128.263,169.727 131.036 C 165.468 132.576,159.664 135.185,159.922 135.443 C 160.011 135.532,160.617 135.329,161.269 134.991 C 161.922 134.654,163.063 134.333,163.807 134.279 C 164.550 134.224,165.077 134.048,164.978 133.887 C 164.879 133.726,165.101 133.594,165.472 133.594 C 165.842 133.594,166.035 133.705,165.899 133.840 C 165.764 133.976,165.903 134.444,166.208 134.880 C 166.729 135.624,166.649 135.732,164.925 136.595 C 162.792 137.662,163.210 137.538,168.683 135.477 C 175.657 132.851,186.210 130.378,196.484 128.962 C 197.881 128.770,198.628 128.590,198.145 128.564 C 196.880 128.494,197.058 127.736,198.340 127.728 C 198.931 127.725,199.221 127.593,198.985 127.435 C 197.863 126.685,198.560 125.781,200.260 125.781 C 201.191 125.781,201.953 125.614,201.953 125.408 C 201.953 125.203,203.140 124.974,204.590 124.899 L 207.227 124.762 204.297 124.739 C 202.686 124.726,199.785 124.862,197.852 125.041 M206.934 128.024 C 208.276 128.100,210.474 128.100,211.816 128.024 C 213.159 127.947,212.061 127.885,209.375 127.885 C 206.689 127.885,205.591 127.947,206.934 128.024 M200.494 128.405 C 201.087 128.495,201.966 128.493,202.447 128.400 C 202.927 128.307,202.441 128.234,201.367 128.237 C 200.293 128.240,199.900 128.316,200.494 128.405 M201.172 133.082 C 194.659 133.573,183.226 135.721,176.367 137.742 C 169.589 139.738,158.329 144.516,160.371 144.529 C 160.597 144.530,160.948 144.366,161.152 144.164 C 161.356 143.962,161.963 143.700,162.500 143.582 C 165.130 143.004,165.794 142.926,165.340 143.249 C 164.982 143.504,165.075 143.774,165.709 144.317 L 166.558 145.044 165.644 145.382 C 165.141 145.568,164.817 145.806,164.922 145.912 C 165.028 146.018,165.801 145.815,166.639 145.463 C 176.114 141.477,191.468 137.964,203.054 137.132 L 207.227 136.832 204.027 136.775 C 200.927 136.721,200.332 136.494,200.150 135.301 C 200.111 135.045,200.433 134.936,200.920 135.042 C 201.601 135.190,201.648 135.145,201.172 134.805 C 200.651 134.433,200.651 134.382,201.172 134.342 C 201.494 134.317,201.318 134.156,200.781 133.984 C 199.645 133.620,199.171 133.684,206.445 133.220 L 210.742 132.946 206.836 132.947 C 204.688 132.948,202.139 133.009,201.172 133.082 M212.207 133.092 C 212.798 133.182,213.765 133.182,214.355 133.092 C 214.946 133.003,214.463 132.930,213.281 132.930 C 212.100 132.930,211.616 133.003,212.207 133.092 M276.816 133.466 C 277.063 133.644,277.355 134.229,277.464 134.766 C 277.635 135.607,277.654 135.584,277.601 134.600 C 277.566 133.956,277.284 133.390,276.953 133.301 C 276.561 133.196,276.516 133.251,276.816 133.466 M276.306 143.555 C 276.307 145.273,276.376 145.928,276.458 145.009 C 276.541 144.090,276.540 142.684,276.456 141.884 C 276.372 141.084,276.304 141.836,276.306 143.555 M198.438 143.161 C 188.340 144.178,178.415 146.427,169.727 149.666 C 165.567 151.217,161.659 153.038,163.623 152.510 C 165.964 151.880,166.889 152.080,165.746 152.968 C 165.101 153.470,165.099 153.497,165.723 153.279 C 166.195 153.115,166.406 153.242,166.406 153.692 C 166.406 154.050,166.546 154.256,166.718 154.150 C 166.889 154.044,167.285 154.119,167.597 154.317 C 168.020 154.585,167.886 154.677,167.067 154.682 C 166.463 154.685,166.069 154.848,166.190 155.045 C 166.312 155.241,166.278 155.476,166.116 155.567 C 165.671 155.815,166.540 155.522,171.875 153.630 C 182.528 149.852,193.883 147.758,206.250 147.289 L 213.867 147.001 207.715 146.938 C 201.958 146.879,199.913 146.452,202.344 145.816 C 202.773 145.704,203.125 145.284,203.125 144.884 C 203.125 144.433,203.497 144.062,204.102 143.910 C 204.639 143.776,205.078 143.515,205.078 143.331 C 205.078 143.147,206.880 142.939,209.082 142.869 C 212.999 142.746,212.980 142.742,208.203 142.706 C 205.518 142.686,201.123 142.891,198.438 143.161 M197.266 153.786 C 186.650 154.914,170.418 159.270,164.147 162.674 C 162.765 163.424,163.202 163.438,164.970 162.699 C 166.770 161.947,167.511 162.232,167.294 163.594 C 167.177 164.328,167.238 164.490,167.493 164.127 C 167.791 163.704,167.905 163.723,168.097 164.225 C 168.228 164.566,168.136 164.844,167.891 164.844 C 167.647 164.844,167.571 164.966,167.721 165.116 C 167.871 165.266,167.592 165.630,167.102 165.925 C 166.069 166.545,165.994 166.569,171.484 164.567 C 180.620 161.237,192.486 158.795,202.256 158.235 C 205.555 158.046,206.603 157.906,204.980 157.870 L 202.344 157.813 203.125 157.031 C 203.555 156.602,203.906 156.074,203.906 155.859 C 203.906 155.645,203.930 155.337,203.959 155.176 C 204.034 154.758,205.139 154.034,206.055 153.803 C 206.944 153.579,199.352 153.564,197.266 153.786 M196.875 164.725 C 190.102 165.450,179.866 167.744,173.633 169.934 C 169.200 171.491,163.590 173.877,163.821 174.107 C 163.917 174.203,164.338 174.099,164.756 173.875 C 166.047 173.184,168.081 172.943,167.711 173.524 C 167.228 174.287,167.304 174.735,168.059 175.563 C 168.734 176.301,168.294 177.201,167.499 176.709 C 167.328 176.603,167.188 176.676,167.188 176.871 C 167.188 177.066,166.483 177.543,165.621 177.931 C 164.759 178.320,164.116 178.700,164.192 178.775 C 164.267 178.851,165.709 178.275,167.396 177.496 C 178.070 172.564,192.289 169.591,205.782 169.469 C 209.584 169.434,212.080 169.348,211.328 169.276 C 210.576 169.205,208.467 169.027,206.641 168.881 C 204.814 168.735,203.610 168.548,203.964 168.466 C 204.655 168.306,205.256 166.797,204.628 166.797 C 204.420 166.797,204.350 166.636,204.472 166.440 C 204.593 166.243,204.472 165.993,204.202 165.885 C 203.932 165.776,204.326 165.652,205.078 165.611 C 206.087 165.554,206.241 165.470,205.664 165.287 C 205.234 165.151,206.816 164.942,209.180 164.823 C 212.581 164.653,211.888 164.604,205.859 164.593 C 201.670 164.585,197.627 164.644,196.875 164.725 M196.680 176.034 C 189.700 176.843,182.334 178.442,176.438 180.429 C 171.717 182.019,164.313 185.146,164.596 185.430 C 164.693 185.526,165.304 185.329,165.955 184.993 C 167.656 184.113,168.252 184.521,168.562 186.774 C 168.732 188.010,168.995 188.657,169.279 188.539 C 180.154 184.036,191.088 181.472,201.953 180.877 C 204.854 180.718,206.523 180.558,205.664 180.522 C 204.602 180.478,204.275 180.347,204.641 180.115 C 205.063 179.848,204.990 179.712,204.309 179.496 C 203.675 179.295,203.554 179.102,203.867 178.789 C 204.103 178.553,204.297 178.055,204.297 177.683 C 204.297 176.859,205.273 176.513,208.594 176.161 C 210.355 175.975,209.099 175.893,204.492 175.895 C 200.840 175.897,197.324 175.959,196.680 176.034 M284.856 180.469 C 284.856 181.221,284.937 181.528,285.035 181.152 C 285.133 180.776,285.133 180.161,285.035 179.785 C 284.937 179.409,284.856 179.717,284.856 180.469 M279.433 186.719 C 279.433 188.545,279.501 189.292,279.583 188.379 C 279.665 187.466,279.665 185.972,279.583 185.059 C 279.501 184.146,279.433 184.893,279.433 186.719 M284.864 188.086 C 284.868 188.945,284.948 189.251,285.042 188.765 C 285.135 188.279,285.132 187.576,285.034 187.202 C 284.936 186.829,284.860 187.227,284.864 188.086 M256.731 245.703 C 256.731 246.455,256.812 246.763,256.910 246.387 C 257.008 246.011,257.008 245.396,256.910 245.020 C 256.812 244.644,256.731 244.951,256.731 245.703 M273.178 262.891 C 273.178 264.502,273.247 265.161,273.331 264.355 C 273.416 263.550,273.416 262.231,273.331 261.426 C 273.247 260.620,273.178 261.279,273.178 262.891 M266.776 281.543 L 265.430 283.008 266.895 281.662 C 268.258 280.409,268.539 280.078,268.241 280.078 C 268.175 280.078,267.516 280.737,266.776 281.543 M249.902 286.994 C 250.386 287.088,251.177 287.088,251.660 286.994 C 252.144 286.901,251.748 286.825,250.781 286.825 C 249.814 286.825,249.419 286.901,249.902 286.994 M169.824 306.536 C 170.737 306.618,172.231 306.618,173.145 306.536 C 174.058 306.454,173.311 306.386,171.484 306.386 C 169.658 306.386,168.911 306.454,169.824 306.536 M156.559 314.063 C 156.497 318.145,156.577 321.485,156.738 321.485 C 156.899 321.485,157.031 318.145,157.031 314.063 C 157.031 309.980,156.951 306.641,156.852 306.641 C 156.754 306.641,156.622 309.981,156.559 314.063 M148.438 324.402 C 148.438 326.302,148.313 326.881,147.935 326.736 C 146.745 326.279,144.551 326.337,144.362 326.830 C 144.254 327.113,143.915 327.344,143.610 327.344 C 143.168 327.344,143.053 328.142,143.047 331.278 C 143.040 334.506,143.138 335.175,143.590 335.002 C 143.893 334.885,144.141 334.960,144.141 335.169 C 144.141 335.377,144.327 335.547,144.554 335.547 C 144.782 335.547,144.859 335.371,144.727 335.156 C 144.594 334.941,144.588 334.766,144.713 334.766 C 144.839 334.766,145.119 335.234,145.337 335.806 C 145.949 337.417,146.570 336.367,146.539 333.772 C 146.519 332.109,146.710 331.282,147.280 330.557 L 148.047 329.582 148.047 331.361 C 148.047 332.339,148.159 333.430,148.295 333.786 C 148.479 334.266,148.355 334.401,147.814 334.307 C 147.297 334.217,147.069 334.427,147.034 335.025 C 147.003 335.557,147.167 335.801,147.476 335.682 C 147.747 335.578,148.084 335.681,148.226 335.911 C 148.368 336.140,149.022 336.328,149.680 336.328 C 150.696 336.328,150.804 336.416,150.394 336.910 C 150.129 337.230,149.788 337.415,149.636 337.321 C 149.485 337.228,149.361 337.669,149.361 338.302 C 149.361 338.970,149.577 339.474,149.876 339.502 C 150.159 339.529,150.698 339.579,151.074 339.613 C 151.450 339.648,152.130 339.883,152.585 340.137 C 153.041 340.390,153.533 340.477,153.680 340.330 C 153.827 340.183,153.832 340.365,153.690 340.735 C 153.422 341.431,152.734 341.667,152.734 341.061 C 152.734 340.871,152.383 340.624,151.953 340.512 C 151.523 340.399,151.269 340.467,151.390 340.661 C 151.512 340.860,150.453 341.016,148.981 341.016 C 145.560 341.016,145.897 341.337,149.423 341.436 C 150.922 341.478,152.333 341.657,152.559 341.834 C 153.013 342.188,168.364 343.166,182.031 343.711 C 207.819 344.739,243.914 343.716,264.258 341.381 C 272.041 340.488,273.990 340.205,280.371 339.045 C 287.980 337.661,294.141 335.408,294.141 334.008 C 294.141 331.699,284.953 328.912,272.266 327.372 C 264.586 326.440,261.732 326.172,259.504 326.172 L 257.146 326.172 256.893 329.160 C 256.754 330.804,256.641 333.077,256.641 334.211 L 256.641 336.272 254.590 336.494 C 253.462 336.616,237.334 336.784,218.750 336.868 C 200.166 336.951,179.775 337.108,173.438 337.215 C 166.235 337.337,161.640 337.266,161.183 337.025 C 160.667 336.754,160.531 336.767,160.718 337.070 C 160.885 337.340,160.611 337.500,159.984 337.500 C 159.434 337.500,158.984 337.324,158.984 337.109 C 158.984 336.547,157.915 336.627,157.681 337.207 C 157.523 337.598,157.477 337.598,157.453 337.207 C 157.434 336.909,156.775 336.693,155.762 336.653 C 154.294 336.595,154.374 336.557,156.445 336.328 C 158.300 336.123,157.730 336.055,153.711 336.003 L 148.633 335.938 148.731 328.907 C 148.784 325.039,148.740 321.875,148.633 321.875 C 148.525 321.875,148.438 323.012,148.438 324.402 M153.383 336.591 C 153.008 336.966,151.172 337.001,151.172 336.634 C 151.172 336.466,151.729 336.328,152.409 336.328 C 153.089 336.328,153.527 336.447,153.383 336.591 " stroke="none" fill="#f9dc8d" fill-rule="evenodd"></path><path id="path5" d="M201.081 90.517 C 201.783 90.604,202.838 90.603,203.425 90.513 C 204.012 90.424,203.437 90.353,202.148 90.355 C 200.859 90.358,200.379 90.431,201.081 90.517 M137.297 154.102 C 137.297 174.941,137.344 183.409,137.402 172.920 C 137.460 162.430,137.460 145.379,137.402 135.029 C 137.344 124.679,137.297 133.262,137.297 154.102 M201.079 291.683 C 201.565 291.776,202.268 291.772,202.641 291.675 C 203.015 291.577,202.617 291.500,201.758 291.505 C 200.898 291.509,200.593 291.589,201.079 291.683 M256.356 323.438 C 256.356 324.404,256.433 324.800,256.526 324.316 C 256.619 323.833,256.619 323.042,256.526 322.559 C 256.433 322.075,256.356 322.471,256.356 323.438 " stroke="none" fill="#98979c" fill-rule="evenodd"></path><path id="path6" d="M198.344 95.198 C 198.830 95.292,199.533 95.288,199.907 95.190 C 200.280 95.092,199.883 95.016,199.023 95.020 C 198.164 95.025,197.858 95.105,198.344 95.198 M205.962 95.202 C 206.556 95.292,207.435 95.290,207.916 95.197 C 208.396 95.104,207.910 95.031,206.836 95.034 C 205.762 95.037,205.369 95.112,205.962 95.202 M206.738 101.441 C 207.114 101.539,207.729 101.539,208.105 101.441 C 208.481 101.343,208.174 101.263,207.422 101.263 C 206.670 101.263,206.362 101.343,206.738 101.441 M197.363 105.738 C 197.739 105.836,198.354 105.836,198.730 105.738 C 199.106 105.640,198.799 105.559,198.047 105.559 C 197.295 105.559,196.987 105.640,197.363 105.738 M204.785 153.414 C 206.021 153.491,208.042 153.491,209.277 153.414 C 210.513 153.336,209.502 153.273,207.031 153.273 C 204.561 153.273,203.550 153.336,204.785 153.414 M205.176 164.342 C 205.767 164.432,206.733 164.432,207.324 164.342 C 207.915 164.253,207.432 164.180,206.250 164.180 C 205.068 164.180,204.585 164.253,205.176 164.342 M125.099 170.898 C 125.103 171.758,125.183 172.063,125.276 171.577 C 125.370 171.092,125.366 170.388,125.268 170.015 C 125.171 169.642,125.094 170.039,125.099 170.898 M128.997 189.063 C 128.997 189.814,129.077 190.122,129.176 189.746 C 129.274 189.370,129.274 188.755,129.176 188.379 C 129.077 188.003,128.997 188.311,128.997 189.063 M128.477 192.188 C 128.251 193.946,128.322 194.464,128.735 194.051 C 128.856 193.930,128.898 193.066,128.829 192.131 L 128.703 190.430 128.477 192.188 M128.216 199.219 C 128.216 199.971,128.296 200.278,128.394 199.902 C 128.493 199.526,128.493 198.911,128.394 198.535 C 128.296 198.159,128.216 198.467,128.216 199.219 M120.020 211.523 C 120.025 212.383,120.105 212.688,120.198 212.202 C 120.292 211.717,120.288 211.013,120.190 210.640 C 120.092 210.267,120.016 210.664,120.020 211.523 M128.216 213.672 C 128.216 214.424,128.296 214.731,128.394 214.355 C 128.493 213.979,128.493 213.364,128.394 212.988 C 128.296 212.612,128.216 212.920,128.216 213.672 M126.716 219.922 C 126.716 222.822,126.777 224.009,126.852 222.559 C 126.927 221.108,126.927 218.735,126.852 217.285 C 126.777 215.835,126.716 217.021,126.716 219.922 M120.020 224.414 C 120.025 225.273,120.105 225.579,120.198 225.093 C 120.292 224.607,120.288 223.904,120.190 223.531 C 120.092 223.157,120.016 223.555,120.020 224.414 M105.212 229.883 C 105.213 231.602,105.282 232.256,105.365 231.337 C 105.447 230.419,105.446 229.012,105.362 228.212 C 105.278 227.412,105.211 228.164,105.212 229.883 M170.410 336.230 C 175.513 336.292,183.862 336.292,188.965 336.230 C 194.067 336.168,189.893 336.118,179.688 336.118 C 169.482 336.118,165.308 336.168,170.410 336.230 M221.610 336.230 C 228.017 336.291,238.388 336.290,244.657 336.230 C 250.926 336.170,245.684 336.121,233.008 336.121 C 220.332 336.121,215.203 336.170,221.610 336.230 " stroke="none" fill="#d7a499" fill-rule="evenodd"></path><path id="path7" d="M197.559 90.510 C 198.042 90.603,198.833 90.603,199.316 90.510 C 199.800 90.417,199.404 90.341,198.438 90.341 C 197.471 90.341,197.075 90.417,197.559 90.510 M205.181 90.515 C 205.775 90.604,206.654 90.602,207.134 90.509 C 207.615 90.417,207.129 90.343,206.055 90.346 C 204.980 90.349,204.587 90.425,205.181 90.515 M200.879 105.749 C 201.470 105.838,202.437 105.838,203.027 105.749 C 203.618 105.659,203.135 105.586,201.953 105.586 C 200.771 105.586,200.288 105.659,200.879 105.749 M138.309 106.911 C 138.397 107.925,139.008 108.785,139.035 107.933 C 139.050 107.462,138.887 106.969,138.672 106.836 C 138.457 106.703,138.294 106.737,138.309 106.911 M137.946 108.984 C 137.946 109.307,138.097 109.922,138.281 110.352 C 138.493 110.844,138.617 110.916,138.617 110.547 C 138.617 110.225,138.466 109.609,138.281 109.180 C 138.070 108.687,137.946 108.615,137.946 108.984 M195.036 114.743 C 196.495 114.819,198.780 114.818,200.114 114.742 C 201.448 114.666,200.254 114.604,197.461 114.605 C 194.668 114.606,193.577 114.668,195.036 114.743 M194.816 118.251 C 195.509 118.337,196.739 118.338,197.550 118.254 C 198.360 118.169,197.793 118.099,196.289 118.097 C 194.785 118.095,194.122 118.164,194.816 118.251 M204.206 124.502 C 204.908 124.589,205.963 124.587,206.550 124.498 C 207.137 124.409,206.562 124.338,205.273 124.340 C 203.984 124.342,203.504 124.415,204.206 124.502 M210.460 124.505 C 211.378 124.588,212.785 124.587,213.585 124.503 C 214.385 124.419,213.633 124.351,211.914 124.353 C 210.195 124.354,209.541 124.423,210.460 124.505 M207.129 132.706 C 207.935 132.791,209.253 132.791,210.059 132.706 C 210.864 132.622,210.205 132.553,208.594 132.553 C 206.982 132.553,206.323 132.622,207.129 132.706 M138.012 134.961 C 138.014 136.250,138.087 136.730,138.174 136.028 C 138.261 135.326,138.259 134.271,138.170 133.684 C 138.081 133.097,138.009 133.672,138.012 134.961 M138.025 140.820 C 138.026 142.539,138.095 143.194,138.177 142.275 C 138.260 141.356,138.259 139.950,138.175 139.150 C 138.091 138.350,138.023 139.102,138.025 140.820 M137.989 151.367 C 137.993 152.227,138.073 152.532,138.167 152.046 C 138.260 151.560,138.257 150.857,138.159 150.484 C 138.061 150.110,137.985 150.508,137.989 151.367 M200.488 153.394 C 200.864 153.493,201.479 153.493,201.855 153.394 C 202.231 153.296,201.924 153.216,201.172 153.216 C 200.420 153.216,200.112 153.296,200.488 153.394 M212.207 153.394 C 212.583 153.493,213.198 153.493,213.574 153.394 C 213.950 153.296,213.643 153.216,212.891 153.216 C 212.139 153.216,211.831 153.296,212.207 153.394 M138.051 163.281 C 138.051 167.041,138.110 168.579,138.181 166.699 C 138.253 164.819,138.253 161.743,138.181 159.863 C 138.110 157.983,138.051 159.521,138.051 163.281 M201.860 158.479 C 202.346 158.573,203.049 158.569,203.423 158.472 C 203.796 158.374,203.398 158.297,202.539 158.302 C 201.680 158.306,201.374 158.386,201.860 158.479 M210.844 158.479 C 211.330 158.573,212.033 158.569,212.407 158.472 C 212.780 158.374,212.383 158.297,211.523 158.302 C 210.664 158.306,210.358 158.386,210.844 158.479 M201.469 164.339 C 201.955 164.432,202.658 164.429,203.032 164.331 C 203.405 164.233,203.008 164.157,202.148 164.161 C 201.289 164.165,200.983 164.245,201.469 164.339 M202.051 175.679 C 203.286 175.757,205.308 175.757,206.543 175.679 C 207.778 175.602,206.768 175.538,204.297 175.538 C 201.826 175.538,200.815 175.602,202.051 175.679 M153.906 232.227 C 155.073 233.408,156.116 234.375,156.223 234.375 C 156.331 234.375,155.464 233.408,154.297 232.227 C 153.130 231.045,152.087 230.078,151.980 230.078 C 151.872 230.078,152.739 231.045,153.906 232.227 M201.074 258.479 C 201.558 258.572,202.349 258.572,202.832 258.479 C 203.315 258.386,202.920 258.310,201.953 258.310 C 200.986 258.310,200.591 258.386,201.074 258.479 M166.270 308.105 C 166.170 308.267,167.346 308.350,168.884 308.292 C 173.643 308.110,174.193 307.940,170.238 307.875 C 168.156 307.841,166.370 307.944,166.270 308.105 M158.320 324.609 C 158.320 325.791,158.393 326.274,158.483 325.684 C 158.572 325.093,158.572 324.126,158.483 323.535 C 158.393 322.944,158.320 323.428,158.320 324.609 M256.405 330.469 C 256.405 333.584,256.466 334.858,256.540 333.301 C 256.614 331.743,256.614 329.194,256.540 327.637 C 256.466 326.079,256.405 327.354,256.405 330.469 " stroke="none" fill="#747474" fill-rule="evenodd"></path><path id="path8" d="M137.200 115.234 C 137.200 115.986,137.280 116.294,137.379 115.918 C 137.477 115.542,137.477 114.927,137.379 114.551 C 137.280 114.175,137.200 114.482,137.200 115.234 M266.203 157.617 C 266.203 178.027,266.251 186.434,266.308 176.299 C 266.366 166.164,266.366 149.465,266.309 139.190 C 266.251 128.915,266.203 137.207,266.203 157.617 M129.359 185.613 C 129.325 186.186,129.183 186.977,129.044 187.370 C 128.850 187.919,128.902 187.984,129.268 187.647 C 129.535 187.401,129.674 186.630,129.583 185.890 C 129.452 184.817,129.410 184.765,129.359 185.613 M137.216 193.359 C 137.216 194.326,137.292 194.722,137.385 194.238 C 137.478 193.755,137.478 192.964,137.385 192.480 C 137.292 191.997,137.216 192.393,137.216 193.359 M126.653 226.172 C 126.653 226.924,126.734 227.231,126.832 226.855 C 126.930 226.479,126.930 225.864,126.832 225.488 C 126.734 225.112,126.653 225.420,126.653 226.172 M246.966 307.813 C 246.966 308.564,247.046 308.872,247.144 308.496 C 247.243 308.120,247.243 307.505,247.144 307.129 C 247.046 306.753,246.966 307.061,246.966 307.813 M247.018 313.477 C 247.019 315.625,247.084 316.454,247.163 315.319 C 247.243 314.184,247.242 312.426,247.162 311.413 C 247.081 310.399,247.017 311.328,247.018 313.477 M246.981 319.922 C 246.981 320.889,247.058 321.284,247.151 320.801 C 247.244 320.317,247.244 319.526,247.151 319.043 C 247.058 318.560,246.981 318.955,246.981 319.922 M257.719 326.058 C 258.205 326.151,258.908 326.147,259.282 326.050 C 259.655 325.952,259.258 325.875,258.398 325.880 C 257.539 325.884,257.233 325.964,257.719 326.058 M293.406 332.617 C 293.754 333.047,294.136 333.662,294.254 333.984 C 294.437 334.482,294.474 334.476,294.500 333.947 C 294.517 333.605,294.136 332.989,293.652 332.580 C 292.781 331.842,292.779 331.843,293.406 332.617 M198.931 336.218 C 199.525 336.308,200.404 336.305,200.884 336.212 C 201.365 336.120,200.879 336.046,199.805 336.049 C 198.730 336.052,198.337 336.128,198.931 336.218 M202.637 336.213 C 203.120 336.306,203.911 336.306,204.395 336.213 C 204.878 336.120,204.482 336.044,203.516 336.044 C 202.549 336.044,202.153 336.120,202.637 336.213 M207.715 336.213 C 208.198 336.306,208.989 336.306,209.473 336.213 C 209.956 336.120,209.561 336.044,208.594 336.044 C 207.627 336.044,207.231 336.120,207.715 336.213 M167.114 337.011 C 170.619 337.076,176.244 337.076,179.614 337.011 C 182.985 336.946,180.117 336.893,173.242 336.893 C 166.367 336.893,163.610 336.946,167.114 337.011 M186.822 336.999 C 187.416 337.089,188.294 337.086,188.775 336.994 C 189.255 336.901,188.770 336.828,187.695 336.830 C 186.621 336.833,186.228 336.909,186.822 336.999 M200.505 337.009 C 201.964 337.084,204.249 337.084,205.583 337.008 C 206.916 336.932,205.723 336.870,202.930 336.871 C 200.137 336.871,199.045 336.933,200.505 337.009 M232.916 343.640 C 233.509 343.729,234.388 343.727,234.869 343.634 C 235.349 343.542,234.863 343.468,233.789 343.471 C 232.715 343.474,232.322 343.550,232.916 343.640 M221.394 344.033 C 222.096 344.120,223.150 344.118,223.737 344.029 C 224.324 343.940,223.750 343.869,222.461 343.871 C 221.172 343.873,220.692 343.946,221.394 344.033 " stroke="none" fill="#c9c8ca" fill-rule="evenodd"></path></g></svg>